<svg width="16" height="16" viewBox="0 0 16 16" fill="none" xmlns="http://www.w3.org/2000/svg">
<path d="M6.19121 13.6357V15.1549L5.82386 14.8582C5.76709 14.8123 4.41658 13.7158 3.04706 12.1435C1.15787 9.97453 0.2 8.02754 0.2 6.35682V6.19123C0.2 2.88766 2.88764 0.200015 6.19121 0.200015C9.49478 0.200015 12.1824 2.88766 12.1824 6.19123V6.35682C12.1824 6.49713 12.175 6.63961 12.1615 6.7838L10.9898 5.71492C10.7499 3.2787 8.68946 1.36903 6.19121 1.36903C3.53229 1.36903 1.36901 3.53231 1.36901 6.19123V6.35682C1.36901 9.18008 5.00663 12.5979 6.19121 13.6357ZM9.78591 12.7961H11.5394V11.0426H9.78591V12.7961ZM6.19121 3.70706C7.56095 3.70706 8.67538 4.82148 8.67538 6.19123C8.67538 7.56097 7.56095 8.6754 6.19121 8.6754C4.82147 8.6754 3.70704 7.56097 3.70704 6.19123C3.70704 4.82148 4.82147 3.70706 6.19121 3.70706ZM6.19121 4.87607C5.466 4.87607 4.87606 5.46601 4.87606 6.19123C4.87606 6.91632 5.466 7.50638 6.19121 7.50638C6.91631 7.50638 7.50637 6.91632 7.50637 6.19123C7.50637 5.46601 6.91631 4.87607 6.19121 4.87607ZM14.4122 12.0017L14.0835 11.7019V13.5786C14.0835 14.4525 13.3725 15.1634 12.4986 15.1634H8.79749C7.92362 15.1634 7.2126 14.4525 7.2126 13.5786V11.7019L6.88392 12.0017L6.09611 11.1382L10.648 6.98545L15.2 11.1382L14.4122 12.0017ZM12.9145 10.6354L10.648 8.56782L8.38161 10.6354V13.5785C8.38161 13.8078 8.56815 13.9944 8.79749 13.9944H12.4986C12.728 13.9944 12.9145 13.8078 12.9145 13.5785V10.6354Z" fill="#677B92"/>
<path fill-rule="evenodd" clip-rule="evenodd" d="M6.39121 13.545V15.5736L5.69818 15.0138C5.63739 14.9646 4.27671 13.8598 2.89625 12.2749L3.04706 12.1435C4.41658 13.7158 5.76709 14.8123 5.82386 14.8582L6.19121 15.1549V13.6357C5.00663 12.5979 1.36901 9.18008 1.36901 6.35682V6.19123C1.36901 3.53231 3.53229 1.36903 6.19121 1.36903C8.68946 1.36903 10.7499 3.2787 10.9898 5.71492L12.1615 6.7838C12.1695 6.6982 12.1754 6.6132 12.1788 6.52891C12.1812 6.47121 12.1824 6.41383 12.1824 6.35682V6.19123C12.1824 2.88766 9.49478 0.200015 6.19121 0.200015C2.88764 0.200015 0.2 2.88766 0.2 6.19123V6.35682C0.2 8.02754 1.15787 9.97453 3.04706 12.1435L2.89625 12.2749C0.99626 10.0935 0 8.10024 0 6.35682V6.19123C0 2.7772 2.77719 1.52588e-05 6.19121 1.52588e-05C9.60523 1.52588e-05 12.3824 2.7772 12.3824 6.19123V6.35682C12.3824 6.50416 12.3746 6.65291 12.3606 6.80245L12.3232 7.20205L10.7983 5.81093L10.7908 5.73453C10.5608 3.39956 8.58547 1.56903 6.19121 1.56903C3.64275 1.56903 1.56901 3.64276 1.56901 6.19123V6.35682C1.56901 7.69526 2.43838 9.20855 3.49276 10.5417C4.53945 11.8652 5.73481 12.9699 6.32301 13.4853L6.39121 13.545ZM9.58591 12.9961V10.8426H11.7394V12.9961H9.58591ZM14.0835 13.5786C14.0835 14.4525 13.3725 15.1634 12.4986 15.1634H8.79749C7.92362 15.1634 7.2126 14.4525 7.2126 13.5786V11.7019L6.88392 12.0017L6.09611 11.1382L10.648 6.98545L15.2 11.1382L14.4122 12.0017L14.0835 11.7019V13.5786ZM14.2835 12.1551L14.4252 12.2843L15.4825 11.1252L10.648 6.71472L5.81357 11.1252L6.87096 12.2843L7.0126 12.1551V13.5786C7.0126 14.563 7.81318 15.3634 8.79749 15.3634H12.4986C13.4829 15.3634 14.2835 14.563 14.2835 13.5786V12.1551ZM11.5394 12.7961H9.78591V11.0426H11.5394V12.7961ZM6.19121 3.50706C7.67141 3.50706 8.87538 4.71103 8.87538 6.19123C8.87538 7.67143 7.67141 8.87539 6.19121 8.87539C4.71101 8.87539 3.50704 7.67143 3.50704 6.19123C3.50704 4.71103 4.71101 3.50706 6.19121 3.50706ZM6.19121 5.07607C5.57646 5.07607 5.07606 5.57647 5.07606 6.19123C5.07606 6.80588 5.57647 7.30638 6.19121 7.30638C6.80585 7.30638 7.30637 6.80587 7.30637 6.19123C7.30637 5.57648 6.80586 5.07607 6.19121 5.07607ZM10.648 8.56782L8.38161 10.6354V13.5785C8.38161 13.8078 8.56815 13.9944 8.79749 13.9944H12.4986C12.728 13.9944 12.9145 13.8078 12.9145 13.5785V10.6354L10.648 8.56782ZM12.7145 10.7237V13.5785C12.7145 13.6974 12.6175 13.7944 12.4986 13.7944H8.79749C8.67861 13.7944 8.58161 13.6974 8.58161 13.5785V10.7237L10.648 8.83854L12.7145 10.7237ZM8.67538 6.19123C8.67538 4.82148 7.56095 3.70706 6.19121 3.70706C4.82147 3.70706 3.70704 4.82148 3.70704 6.19123C3.70704 7.56097 4.82147 8.6754 6.19121 8.6754C7.56095 8.6754 8.67538 7.56097 8.67538 6.19123ZM4.87606 6.19123C4.87606 5.46601 5.466 4.87607 6.19121 4.87607C6.91631 4.87607 7.50637 5.46601 7.50637 6.19123C7.50637 6.91632 6.91631 7.50638 6.19121 7.50638C5.466 7.50638 4.87606 6.91632 4.87606 6.19123Z" fill="#677B92"/>
</svg>
