<svg width="375" height="812" viewBox="0 0 375 812" fill="none" xmlns="http://www.w3.org/2000/svg">
<rect width="375" height="812" rx="25" fill="white"/>
<rect width="375" height="812" fill="white"/>
<mask id="mask0" mask-type="alpha" maskUnits="userSpaceOnUse" x="0" y="0" width="375" height="812">
<rect width="375" height="812" fill="white"/>
</mask>
<g mask="url(#mask0)">
<path d="M343.742 460.696C276.393 359.202 201.46 423.351 172.412 468.112C151.134 561.798 -79.8668 495.744 4.53395 571.223C72.0546 631.607 9.85077 788.431 -29.6912 859.295L646.752 803.329C710.066 758.887 636.413 624.389 534.392 632.83C432.371 641.27 427.928 587.564 343.742 460.696Z" fill="#FEA41D"/>
<path d="M-158.421 160.765C-217.22 155.566 -229.187 97.4634 -227.821 69.0618L221.761 -57.2911C221.761 -57.2911 277.462 38.3527 297 82.0001C316.538 125.647 266.795 147.296 228 134.923C189.205 122.55 182.507 205.899 154.535 261.605C126.564 317.312 -17.0593 238.71 -24.419 190.347C-31.7788 141.984 -84.921 167.264 -158.421 160.765Z" fill="#6CD8D1"/>
<path d="M-11.6199 435.11C-95.3558 436.026 -81.3661 604.294 -63.9043 688.314C-84.6922 849.937 120.732 812.402 133.28 836.902L203.011 725.292C234.946 477.638 373.368 538.909 433.502 527.439C493.635 515.969 425.357 260.062 394.28 195.902C363.203 131.742 366.142 188.604 265.28 151.902C164.418 115.2 142.443 189.172 147.509 279.054C152.803 372.988 93.05 433.965 -11.6199 435.11Z" fill="#255ED6"/>
<path d="M103.959 -171.241C25.9791 -214.977 132.269 -366.298 195.161 -436.491L337.405 -530L465.823 -334.654C358.62 -85.0493 522.294 -71.8835 572.307 -30.2912C622.32 11.3012 488.261 127.607 423.604 172.124C358.947 216.641 238.802 265.432 123.938 248.357C9.07505 231.282 112.179 139.28 166.699 57.2178C223.676 -28.5431 201.434 -116.57 103.959 -171.241Z" fill="#2E4FFF"/>
<path d="M-0.999951 680C91.1446 843.175 354.852 900.328 346 800C340 732 265 691 334 636C416.604 570.156 633.613 177.001 520.1 134.412C406.588 91.8231 368.235 135.709 296.037 -11.1595C263.973 -76.3863 75.0596 18.2655 44.1804 115.881C8.24008 229.497 0.417346 200.544 -0.99994 172.088L-0.999948 147C-0.999948 147 -1.62713 159.495 -0.99994 172.088L-0.999951 680Z" fill="white"/>
</g>
</svg>
