<svg width="32" height="32" viewBox="0 0 32 32" fill="none" xmlns="http://www.w3.org/2000/svg">
<rect width="32" height="32" rx="5" fill="#FBB3B3"/>
<path d="M23.6359 19.1586C22.5951 19.1586 21.5731 18.9958 20.6047 18.6757C20.1302 18.5139 19.5468 18.6624 19.2572 18.9598L17.3457 20.4028C15.129 19.2195 13.7635 17.8544 12.5963 15.6543L13.9968 13.7926C14.3607 13.4292 14.4912 12.8984 14.3348 12.4004C14.0134 11.4269 13.8502 10.4054 13.8502 9.36416C13.8502 8.61196 13.2382 8 12.4861 8H9.36411C8.61195 8 8 8.61196 8 9.36412C8 17.9859 15.0142 25 23.6359 25C24.388 25 25 24.388 25 23.6359V20.5226C25 19.7705 24.388 19.1586 23.6359 19.1586Z" fill="white"/>
</svg>
