<svg width="35" height="35" viewBox="0 0 35 35" fill="none" xmlns="http://www.w3.org/2000/svg">
<g clip-path="url(#clip0)">
<path d="M34.3165 15.6585C34.3152 18.5861 33.1127 21.1841 31.256 22.8107L30.0726 23.9139C29.2894 22.7998 28.1048 22.0902 26.7787 22.0902C24.4212 22.0902 22.5096 24.3336 22.5096 27.1003C22.5096 28.2457 22.8369 29.301 23.3885 30.1447L20.7673 32.5882C19.7926 33.4964 18.4135 33.4972 17.4382 32.5889C15.7471 31.0131 13.0603 28.5094 10.7855 26.3892C8.51016 24.2683 6.64734 22.5315 6.60411 22.4888C4.93895 20.8462 3.88215 18.3818 3.88895 15.6273C3.9007 10.7809 7.25261 6.79713 11.3822 6.7268C15.6353 6.65364 17.4382 10.6526 17.4382 15.6273C17.4382 10.654 22.5683 6.65647 26.8195 6.7268C30.9596 6.79495 34.3189 10.799 34.3165 15.6585Z" fill="#FF7A7A"/>
<path d="M26.7787 32.11C29.1363 32.11 31.0475 29.867 31.0475 27.1001C31.0475 24.3333 29.1363 22.0903 26.7787 22.0903C24.4211 22.0903 22.5099 24.3333 22.5099 27.1001C22.5099 29.867 24.4211 32.11 26.7787 32.11Z" fill="#A0E4A5"/>
<path d="M26.0393 6.00105C23.5853 5.96316 21.2713 6.95098 19.5248 8.77934C18.6401 9.70553 17.9567 10.7889 17.4977 11.971C16.5191 9.45157 14.5563 7.42855 12.0216 6.51303C11.6642 6.38406 11.2759 6.58692 11.1542 6.96636C11.0326 7.34588 11.2238 7.75814 11.5813 7.88726C14.7125 9.01827 16.8164 12.139 16.8164 15.6527C16.8164 16.0534 17.1224 16.3785 17.5 16.3785C17.8775 16.3785 18.1836 16.0534 18.1836 15.6527C18.1836 13.4404 19.0008 11.3665 20.4847 9.81295C21.9419 8.28739 23.8638 7.45163 25.9077 7.45163C25.9451 7.45163 25.9827 7.45192 26.0201 7.4525C30.2202 7.51507 33.6353 11.1961 33.6328 15.6582C33.6316 18.2695 32.4987 20.6645 30.5246 22.229C30.5192 22.2334 30.5138 22.2378 30.5084 22.2423L29.6933 22.9297C28.6986 21.9305 27.3538 21.3644 25.9846 21.3644C23.0057 21.3644 20.5822 23.9376 20.5822 27.1004C20.5822 28.1133 20.8347 29.1193 21.3182 29.993L18.9148 32.0199C18.0817 32.722 16.9182 32.7222 16.0852 32.0206C14.216 30.4447 11.2462 27.9411 8.73185 25.8209C7.27115 24.5891 4.23155 22.0259 4.12464 21.9333C2.36561 20.3635 1.36059 18.0659 1.36723 15.6294C1.37604 12.3317 3.2426 9.37065 6.12237 8.08569C6.47046 7.93037 6.63404 7.50498 6.48775 7.1354C6.34146 6.7659 5.94081 6.592 5.59272 6.74746C2.20565 8.25858 0.0103605 11.7434 3.82685e-05 15.6252C-0.0077547 18.493 1.175 21.1972 3.24444 23.044C3.2856 23.0809 4.0368 23.7154 7.88153 26.9576C10.396 29.0778 13.3658 31.5815 15.2352 33.1575C15.9019 33.7192 16.7006 34 17.4996 34C18.2988 33.9999 19.0982 33.7188 19.7651 33.1565L22.155 31.1411C23.1341 32.187 24.4893 32.8357 25.9847 32.8357C28.9634 32.8357 31.3867 30.2628 31.3867 27.1002C31.3867 25.9814 31.0824 24.9373 30.5585 24.0539L31.3509 23.3856C32.4567 22.5071 33.3734 21.3552 34.0023 20.0539C34.6636 18.6855 34.9993 17.2067 35 15.659C35.0029 10.4072 30.9832 6.07472 26.0393 6.00105ZM25.9845 31.3841C23.7885 31.3841 21.9497 29.4319 21.9497 27.1002C21.9497 24.738 23.7598 22.8162 25.9845 22.8162C27.6711 22.8162 29.2177 23.977 29.7852 25.6614C29.9405 26.1222 30.0194 26.6109 30.0194 27.1002C30.0194 29.4623 28.2094 31.3841 25.9845 31.3841Z" fill="black"/>
<path d="M27.9484 26.2937H26.6681V24.9343C26.6681 24.5335 26.362 24.2085 25.9845 24.2085C25.607 24.2085 25.3009 24.5335 25.3009 24.9343V26.2937H24.0206C23.6431 26.2937 23.337 26.6187 23.337 27.0195C23.337 27.4203 23.6431 27.7453 24.0206 27.7453H25.3009V29.1046C25.3009 29.5054 25.607 29.8304 25.9845 29.8304C26.362 29.8304 26.6681 29.5054 26.6681 29.1046V27.7453H27.9484C28.3259 27.7453 28.632 27.4203 28.632 27.0195C28.632 26.6187 28.3259 26.2937 27.9484 26.2937Z" fill="black"/>
<path d="M8.12386 7.003C8.26516 7.36873 8.67265 7.54691 9.01595 7.39565C9.36014 7.24403 9.52872 6.81349 9.38578 6.44769C9.24284 6.08181 8.83719 5.9045 8.493 6.05583C8.14949 6.20687 7.98092 6.63836 8.12386 7.003Z" fill="black"/>
</g>
<defs>
<clipPath id="clip0">
<rect width="35" height="35" fill="white"/>
</clipPath>
</defs>
</svg>
