<svg width="32" height="32" viewBox="0 0 32 32" fill="none" xmlns="http://www.w3.org/2000/svg">
<rect width="32" height="32" rx="5" fill="#BCA6FB"/>
<path d="M16 7C11.0259 7 7 11.0253 7 16C7 17.5786 7.41171 19.1204 8.19353 20.4802L7.03392 24.0813C6.95303 24.3323 7.0195 24.6075 7.20599 24.794C7.3907 24.9787 7.66522 25.0477 7.91873 24.9661L11.5198 23.8065C12.8796 24.5883 14.4214 25 16 25C20.9741 25 25 20.9747 25 16C25 11.0259 20.9747 7 16 7ZM16 23.5938C14.5741 23.5938 13.1842 23.1959 11.9805 22.4432C11.8073 22.335 11.5923 22.3057 11.3922 22.3701L8.79269 23.2073L9.62985 20.6078C9.6933 20.4106 9.66652 20.1953 9.55666 20.0195C8.80409 18.8158 8.40625 17.4259 8.40625 16C8.40625 11.8128 11.8128 8.40625 16 8.40625C20.1872 8.40625 23.5938 11.8128 23.5938 16C23.5938 20.1872 20.1872 23.5938 16 23.5938ZM16.8789 16C16.8789 16.4853 16.4855 16.8789 16 16.8789C15.5145 16.8789 15.1211 16.4853 15.1211 16C15.1211 15.5145 15.5145 15.1211 16 15.1211C16.4855 15.1211 16.8789 15.5145 16.8789 16ZM20.3945 16C20.3945 16.4853 20.0011 16.8789 19.5156 16.8789C19.0302 16.8789 18.6367 16.4853 18.6367 16C18.6367 15.5145 19.0302 15.1211 19.5156 15.1211C20.0011 15.1211 20.3945 15.5145 20.3945 16ZM13.3633 16C13.3633 16.4853 12.9698 16.8789 12.4844 16.8789C11.9991 16.8789 11.6055 16.4853 11.6055 16C11.6055 15.5145 11.9991 15.1211 12.4844 15.1211C12.9698 15.1211 13.3633 15.5145 13.3633 16Z" fill="white"/>
</svg>
