<svg width="22" height="22" viewBox="0 0 22 22" fill="none" xmlns="http://www.w3.org/2000/svg">
<path d="M2.05144 21.0575L2.05146 21.0575L6.01062 19.7826C7.52733 20.6457 9.24344 21.1 11 21.1C16.582 21.1 21.1 16.5827 21.1 11C21.1 5.41804 16.5827 0.9 11 0.9C5.41804 0.9 0.9 5.41727 0.9 11C0.9 12.7566 1.35429 14.4727 2.21743 15.9894L0.942508 19.9485C0.841125 20.2632 0.924437 20.6081 1.15817 20.8418C1.38965 21.0733 1.73371 21.1597 2.05144 21.0575ZM6.58693 18.0743L6.5869 18.0743C6.36989 17.9387 6.10038 17.902 5.84958 17.9828L5.88022 18.0779L5.84956 17.9828L3.14685 18.8532L4.01724 16.1504L4.01725 16.1504C4.09678 15.9032 4.06321 15.6334 3.92553 15.4131L3.92552 15.4131C3.09932 14.0916 2.6625 12.5657 2.6625 11C2.6625 6.40282 6.40282 2.6625 11 2.6625C15.5972 2.6625 19.3375 6.40282 19.3375 11C19.3375 15.5972 15.5972 19.3375 11 19.3375C9.43434 19.3375 7.90839 18.9007 6.58693 18.0743ZM11 12.0766C11.5946 12.0766 12.0766 11.5945 12.0766 11C12.0766 10.4054 11.5946 9.92344 11 9.92344C10.4054 9.92344 9.92344 10.4054 9.92344 11C9.92344 11.5945 10.4054 12.0766 11 12.0766ZM14.9062 12.0766C15.5009 12.0766 15.9828 11.5945 15.9828 11C15.9828 10.4054 15.5009 9.92344 14.9062 9.92344C14.3116 9.92344 13.8297 10.4054 13.8297 11C13.8297 11.5945 14.3116 12.0766 14.9062 12.0766ZM7.09375 12.0766C7.68839 12.0766 8.17031 11.5945 8.17031 11C8.17031 10.4054 7.68838 9.92344 7.09375 9.92344C6.49929 9.92344 6.01719 10.4054 6.01719 11C6.01719 11.5945 6.49928 12.0766 7.09375 12.0766Z" fill="#35364F" stroke="#35364F" stroke-width="0.2"/>
</svg>
