<svg width="11" height="11" viewBox="0 0 11 11" fill="none" xmlns="http://www.w3.org/2000/svg">
<path fill-rule="evenodd" clip-rule="evenodd" d="M7.54839 0.547154C4.97124 -0.736413 1.83073 0.315856 0.547158 2.893C-0.736409 5.47015 0.315836 8.61066 2.89301 9.89423C5.26311 11.0747 8.10969 10.2796 9.55017 8.13962C9.75176 7.84015 9.5874 7.44695 9.24465 7.33363C8.9734 7.24395 8.6804 7.36378 8.51341 7.59557C7.37228 9.17947 5.21395 9.75236 3.41092 8.85435C1.40749 7.85653 0.589209 5.41436 1.58704 3.41092C2.58487 1.40748 5.02703 0.589205 7.03047 1.58703C7.6548 1.89798 8.16403 2.3492 8.53908 2.88368C8.65563 3.04977 8.83354 3.16649 9.03554 3.18556C9.50656 3.23002 9.84867 2.76158 9.5905 2.3651C9.10015 1.61203 8.40936 0.975969 7.54839 0.547154Z" fill="#35364F"/>
<path d="M9.2346 5.03505C9.19647 4.75191 9.32682 4.46345 9.58543 4.34205C9.91222 4.18865 10.3019 4.36113 10.3615 4.71718C10.4524 5.26113 10.4545 5.80464 10.3767 6.33059C10.326 6.67335 9.96344 6.85562 9.6395 6.73269C9.36082 6.62694 9.21002 6.32972 9.24414 6.03362C9.28186 5.70628 9.27987 5.37118 9.2346 5.03505Z" fill="#35364F"/>
<path d="M5.46865 5.40106V2.94079H4.70693V5.80373L6.66983 7.14139L7.0988 6.51193L5.46865 5.40106Z" fill="#35364F"/>
<path fill-rule="evenodd" clip-rule="evenodd" d="M4.70693 5.80373V2.94079H5.46865V5.40106L7.0988 6.51193L6.66983 7.14139L4.70693 5.80373ZM5.66865 5.29533V2.74079H4.50693V5.90947L6.72247 7.41929L7.37671 6.45929L5.66865 5.29533Z" fill="#35364F"/>
</svg>
