<svg width="19" height="19" viewBox="0 0 19 19" fill="none" xmlns="http://www.w3.org/2000/svg">
<path d="M18.4586 7.35949L17.3993 8.41892L14.4478 5.46767L15.5075 4.40814C15.8414 4.07427 16.343 4.03299 16.6263 4.31598L18.5508 6.24081C18.8337 6.52369 18.7925 7.02563 18.4586 7.35949ZM13.9559 5.9593L16.9075 8.91084L9.8694 15.9488C9.83713 15.9811 9.74749 16.0707 9.62177 16.1028C9.60722 16.1098 9.59234 16.1157 9.57761 16.1204L5.90449 17.291C5.8017 17.3235 5.6984 17.3025 5.63139 17.2353C5.56417 17.1682 5.54336 17.065 5.57552 16.9622L6.74612 13.2894C6.75111 13.2743 6.75707 13.2597 6.76376 13.2454C6.79595 13.1195 6.88534 13.0301 6.91797 12.9976L8.24062 11.675H3.77334C3.59326 11.675 3.44714 11.5289 3.44714 11.3488C3.44714 11.1683 3.59323 11.0226 3.77334 11.0226H8.89304L13.9559 5.9593ZM8.96152 15.722L7.14458 13.9054L6.65719 15.4353L7.43162 16.2098L8.96152 15.722ZM13.8425 7.13238C13.738 7.02779 13.5686 7.02779 13.4643 7.13238L7.97751 12.6188C7.87313 12.7233 7.87313 12.8928 7.97751 12.9973C8.08188 13.1017 8.25147 13.1017 8.35585 12.9973L13.8425 7.51079C13.947 7.4062 13.947 7.23676 13.8425 7.13238ZM13.511 17.5775C13.511 17.7735 13.3515 17.9332 13.1554 17.9332H6.68137L6.09661 18.1197C5.97916 18.1571 5.85843 18.1759 5.7376 18.1759C5.4803 18.1759 5.24108 18.0878 5.04537 17.9332H1.68456C1.48845 17.9332 1.32853 17.7739 1.32853 17.5775V2.63812C1.32853 2.44201 1.48824 2.28241 1.68456 2.28241H3.01828V2.84561C3.01828 3.04194 3.17745 3.20121 3.37409 3.20121C3.57066 3.20121 3.72983 3.04194 3.72983 2.84561V2.28238H5.77497V2.84558C5.77497 3.0419 5.93414 3.20118 6.13071 3.20118C6.32735 3.20118 6.48652 3.0419 6.48652 2.84558V2.28238H8.26495V2.84558C8.26495 3.0419 8.42412 3.20118 8.6208 3.20118C8.81733 3.20118 8.9765 3.0419 8.9765 2.84558V2.28238H10.933V2.84558C10.933 3.0419 11.0921 3.20118 11.2885 3.20118C11.4852 3.20118 11.6444 3.0419 11.6444 2.84558V2.28238H13.1561C13.3519 2.28238 13.5117 2.44198 13.5117 2.63808V5.10184L13.8846 4.7291L14.5788 4.03475V2.63812C14.5788 1.85373 13.9406 1.21544 13.1561 1.21544H11.6444V0.35585C11.6444 0.159421 11.4851 0 11.2885 0C11.0923 0 10.933 0.159206 10.933 0.35585V1.21544H8.97607V0.35585C8.97607 0.159421 8.8169 0 8.62033 0C8.42368 0 8.26451 0.159206 8.26451 0.35585V1.21544H6.48609V0.35585C6.48609 0.159421 6.32692 0 6.13024 0C5.9337 0 5.77453 0.159206 5.77453 0.35585V1.21544H3.7294V0.35585C3.7294 0.159421 3.5702 0 3.37366 0C3.17702 0 3.01785 0.159206 3.01785 0.35585V1.21544H1.68413C0.899705 1.21544 0.26123 1.85373 0.26123 2.63812V17.5773C0.26123 18.3618 0.899741 19 1.68413 19H13.1553C13.9398 19 14.578 18.3618 14.578 17.5773V12.3979L13.5108 13.4654V17.5775H13.511ZM10.7325 5.47702H3.77334C3.59326 5.47702 3.44714 5.62293 3.44714 5.80322C3.44714 5.98356 3.59323 6.12943 3.77334 6.12943H10.7325C10.9126 6.12943 11.0587 5.98352 11.0587 5.80322C11.0587 5.62293 10.9126 5.47702 10.7325 5.47702ZM10.7325 8.10705H3.77334C3.59326 8.10705 3.44714 8.25303 3.44714 8.43326C3.44714 8.61359 3.59323 8.75947 3.77334 8.75947H10.7325C10.9126 8.75947 11.0587 8.61355 11.0587 8.43326C11.0587 8.25303 10.9126 8.10705 10.7325 8.10705Z" fill="white"/>
</svg>
