<svg width="15" height="15" viewBox="0 0 15 15" fill="none" xmlns="http://www.w3.org/2000/svg">
<path d="M12.75 1.50001H12V0H10.5V1.50001H4.50001V0H3V1.50001H2.25001C1.42127 1.50001 0.757523 2.17125 0.757523 3.00002L0.75 13.5C0.75 14.3287 1.42124 15 2.25001 15H12.75C13.5788 15 14.25 14.3288 14.25 13.5V2.99999C14.25 2.17125 13.5788 1.50001 12.75 1.50001ZM12.75 13.5H2.25001V5.24998H12.75V13.5Z" fill="#677B92"/>
<path d="M10.8975 7.54498L10.1025 6.74999L6.44249 10.41L4.85252 8.81999L4.0575 9.61498L6.44249 12L10.8975 7.54498Z" fill="#677B92"/>
</svg>
