<svg width="112" height="27" viewBox="0 0 112 27" fill="none" xmlns="http://www.w3.org/2000/svg">
<path d="M21.176 11.672C21.968 11.672 22.592 11.9 23.048 12.356C23.528 12.788 23.768 13.376 23.768 14.12V20.384C23.768 21.584 23.672 22.508 23.48 23.156C23.312 23.78 22.988 24.272 22.508 24.632C22.052 24.992 21.356 25.304 20.42 25.568C19.484 25.808 18.44 25.988 17.288 26.108C16.16 26.252 15.104 26.324 14.12 26.324C11.36 26.324 8.96 25.808 6.92 24.776C4.904 23.72 3.356 22.22 2.276 20.276C1.196 18.308 0.656 15.98 0.656 13.292C0.656 10.652 1.196 8.36 2.276 6.416C3.356 4.448 4.892 2.936 6.884 1.88C8.876 0.823999 11.204 0.295998 13.868 0.295998C15.548 0.295998 17.048 0.499999 18.368 0.907999C19.712 1.292 20.96 1.892 22.112 2.708C22.52 2.996 22.808 3.308 22.976 3.644C23.168 3.98 23.264 4.412 23.264 4.94C23.264 5.684 23.06 6.32 22.652 6.848C22.244 7.352 21.752 7.604 21.176 7.604C20.792 7.604 20.456 7.556 20.168 7.46C19.904 7.34 19.556 7.148 19.124 6.884C18.236 6.404 17.396 6.056 16.604 5.84C15.836 5.624 14.996 5.516 14.084 5.516C11.804 5.516 10.1 6.152 8.972 7.424C7.868 8.696 7.316 10.652 7.316 13.292C7.316 16.004 7.892 18.02 9.044 19.34C10.22 20.636 12.008 21.284 14.408 21.284C15.56 21.284 16.7 21.164 17.828 20.924V16.208H15.236C14.444 16.208 13.832 16.016 13.4 15.632C12.968 15.224 12.752 14.66 12.752 13.94C12.752 13.22 12.968 12.668 13.4 12.284C13.832 11.876 14.444 11.672 15.236 11.672H21.176ZM44.9411 20.312C45.4931 20.312 45.9371 20.528 46.2731 20.96C46.6331 21.392 46.8131 21.956 46.8131 22.652C46.8131 23.612 46.3451 24.344 45.4091 24.848C44.5931 25.256 43.6211 25.604 42.4931 25.892C41.3891 26.156 40.3691 26.288 39.4331 26.288C37.4651 26.288 35.7491 25.916 34.2851 25.172C32.8211 24.428 31.6931 23.36 30.9011 21.968C30.1091 20.576 29.7131 18.944 29.7131 17.072C29.7131 15.296 30.0851 13.712 30.8291 12.32C31.5971 10.904 32.6531 9.812 33.9971 9.044C35.3651 8.252 36.9011 7.856 38.6051 7.856C40.2611 7.856 41.7131 8.216 42.9611 8.936C44.2091 9.656 45.1691 10.676 45.8411 11.996C46.5371 13.316 46.8851 14.864 46.8851 16.64C46.8851 17.192 46.7531 17.624 46.4891 17.936C46.2491 18.224 45.8891 18.368 45.4091 18.368H35.9051C36.0731 19.52 36.4451 20.348 37.0211 20.852C37.5971 21.356 38.4491 21.608 39.5771 21.608C40.1771 21.608 40.7291 21.548 41.2331 21.428C41.7371 21.284 42.3011 21.092 42.9251 20.852C43.2851 20.708 43.6331 20.588 43.9691 20.492C44.3291 20.372 44.6531 20.312 44.9411 20.312ZM38.7851 12.176C37.9451 12.176 37.2731 12.452 36.7691 13.004C36.2651 13.532 35.9651 14.312 35.8691 15.344H41.5211C41.3771 13.232 40.4651 12.176 38.7851 12.176ZM63.9187 7.928C64.7347 7.856 65.3827 8.048 65.8627 8.504C66.3427 8.936 66.5827 9.584 66.5827 10.448C66.5827 11.408 66.3547 12.104 65.8987 12.536C65.4667 12.968 64.6747 13.244 63.5227 13.364L62.4427 13.472C61.2427 13.616 60.3787 14 59.8507 14.624C59.3467 15.224 59.0947 16.052 59.0947 17.108V23.264C59.0947 24.248 58.7827 24.992 58.1587 25.496C57.5587 25.976 56.8027 26.216 55.8907 26.216C54.9787 26.216 54.2107 25.976 53.5867 25.496C52.9867 24.992 52.6867 24.248 52.6867 23.264V10.808C52.6867 9.896 52.9867 9.188 53.5867 8.684C54.2107 8.18 54.9547 7.928 55.8187 7.928C56.7067 7.928 57.4147 8.168 57.9427 8.648C58.4947 9.128 58.7707 9.8 58.7707 10.664V11.348C59.1547 10.292 59.7787 9.476 60.6427 8.9C61.5307 8.324 62.4547 8.012 63.4147 7.964L63.9187 7.928ZM85.7772 0.439999C86.7372 0.439999 87.5172 0.715999 88.1172 1.268C88.7412 1.796 89.0532 2.48 89.0532 3.32V23.264C89.0532 24.176 88.7652 24.896 88.1892 25.424C87.6132 25.952 86.8452 26.216 85.8852 26.216C84.9972 26.216 84.2652 25.988 83.6892 25.532C83.1372 25.052 82.8252 24.404 82.7532 23.588C82.2492 24.428 81.5052 25.088 80.5212 25.568C79.5612 26.048 78.4932 26.288 77.3172 26.288C75.8052 26.288 74.4492 25.904 73.2492 25.136C72.0732 24.344 71.1492 23.24 70.4772 21.824C69.8052 20.408 69.4692 18.788 69.4692 16.964C69.4692 15.14 69.7932 13.544 70.4412 12.176C71.1132 10.784 72.0372 9.716 73.2132 8.972C74.4132 8.228 75.7812 7.856 77.3172 7.856C78.4452 7.856 79.4772 8.084 80.4132 8.54C81.3732 8.996 82.1172 9.608 82.6452 10.376V3.212C82.6452 2.372 82.9212 1.7 83.4732 1.196C84.0492 0.691999 84.8172 0.439999 85.7772 0.439999ZM79.2612 21.5C80.3892 21.5 81.2532 21.116 81.8532 20.348C82.4532 19.58 82.7532 18.476 82.7532 17.036C82.7532 15.62 82.4532 14.54 81.8532 13.796C81.2532 13.028 80.3892 12.644 79.2612 12.644C78.1572 12.644 77.3052 13.016 76.7052 13.76C76.1052 14.504 75.8052 15.572 75.8052 16.964C75.8052 18.404 76.1052 19.52 76.7052 20.312C77.3292 21.104 78.1812 21.5 79.2612 21.5ZM103.921 7.856C106.657 7.856 108.673 8.516 109.969 9.836C111.289 11.132 111.949 13.112 111.949 15.776V23.3C111.949 24.212 111.673 24.932 111.121 25.46C110.593 25.964 109.849 26.216 108.889 26.216C108.049 26.216 107.353 25.976 106.801 25.496C106.273 25.016 105.985 24.368 105.937 23.552C105.601 24.416 105.037 25.088 104.245 25.568C103.453 26.048 102.505 26.288 101.401 26.288C100.177 26.288 99.0732 26.048 98.0892 25.568C97.1052 25.064 96.3252 24.38 95.7492 23.516C95.1972 22.628 94.9212 21.632 94.9212 20.528C94.9212 19.256 95.2452 18.248 95.8932 17.504C96.5652 16.736 97.6212 16.184 99.0612 15.848C100.501 15.512 102.445 15.344 104.893 15.344H105.865V14.912C105.865 14.072 105.673 13.472 105.289 13.112C104.905 12.728 104.257 12.536 103.345 12.536C102.361 12.536 100.921 12.872 99.0252 13.544C98.4732 13.736 98.0052 13.832 97.6212 13.832C97.0212 13.832 96.5412 13.616 96.1812 13.184C95.8212 12.752 95.6412 12.188 95.6412 11.492C95.6412 10.964 95.7492 10.532 95.9652 10.196C96.1812 9.86 96.5292 9.56 97.0092 9.296C97.8492 8.864 98.9052 8.516 100.177 8.252C101.449 7.988 102.697 7.856 103.921 7.856ZM102.913 22.004C103.777 22.004 104.485 21.704 105.037 21.104C105.589 20.48 105.865 19.688 105.865 18.728V18.296H105.289C103.753 18.296 102.661 18.44 102.013 18.728C101.365 18.992 101.041 19.448 101.041 20.096C101.041 20.648 101.209 21.104 101.545 21.464C101.905 21.824 102.361 22.004 102.913 22.004Z" fill="#FEFEFE"/>
</svg>
