<svg width="8" height="12" viewBox="0 0 8 12" fill="none" xmlns="http://www.w3.org/2000/svg">
<path d="M0.278418 4.6216C0.278418 2.56942 1.94784 0.9 4.00004 0.9C6.05223 0.9 7.72163 2.56942 7.72167 4.6216C7.72167 5.26108 7.51313 5.96787 7.20456 6.66568C6.89544 7.36473 6.48271 8.06188 6.06707 8.68399C5.2358 9.92819 4.38753 10.8802 4.31709 10.9586L0.278418 4.6216ZM0.278418 4.6216C0.278418 5.26108 0.486954 5.96787 0.795523 6.66568M0.278418 4.6216L0.795523 6.66568M0.795523 6.66568C1.10464 7.36473 1.51737 8.06188 1.93302 8.68399M0.795523 6.66568L1.93302 8.68399M1.93302 8.68399C2.7643 9.92822 3.61259 10.8802 3.683 10.9586M1.93302 8.68399L3.683 10.9586M3.683 10.9586C3.85239 11.1473 4.14802 11.1469 4.31708 10.9586H3.683ZM5.80806 7.49852C5.23355 8.45945 4.5349 9.37583 4.00004 10.0186C3.4653 9.37601 2.76665 8.45962 2.19212 7.49865C1.58702 6.48656 1.13061 5.4427 1.13061 4.62164C1.13061 3.03949 2.41791 1.75219 4.00004 1.75219C5.58218 1.75219 6.86948 3.03949 6.86948 4.62162C6.86947 5.44272 6.41312 6.48648 5.80806 7.49852Z" fill="#35364F" stroke="#35364F" stroke-width="0.2"/>
<path d="M4.00009 2.74948C2.96775 2.74948 2.12798 3.58927 2.12798 4.62161C2.12798 5.65395 2.96777 6.49374 4.00009 6.49374C5.03241 6.49374 5.87218 5.65395 5.87218 4.62161C5.87218 3.58927 5.03241 2.74948 4.00009 2.74948ZM4.00009 5.74155C3.38259 5.74155 2.88017 5.23912 2.88017 4.62161C2.88017 4.00411 3.3826 3.50167 4.00009 3.50167C4.61757 3.50167 5.12001 4.00411 5.12001 4.62161C5.12001 5.23912 4.61757 5.74155 4.00009 5.74155Z" fill="#35364F" stroke="#35364F" stroke-width="0.1"/>
</svg>
