<svg width="18" height="18" viewBox="0 0 18 18" fill="none" xmlns="http://www.w3.org/2000/svg">
<path fill-rule="evenodd" clip-rule="evenodd" d="M1.7 1.7V6.3H6.3V1.7H1.7ZM1.4 0C0.626801 0 0 0.626801 0 1.4V6.6C0 7.3732 0.626801 8 1.4 8H6.6C7.3732 8 8 7.3732 8 6.6V1.4C8 0.626801 7.3732 0 6.6 0H1.4Z" fill="#35364F"/>
<path fill-rule="evenodd" clip-rule="evenodd" d="M11.6999 1.7V6.3H16.2999V1.7H11.6999ZM11.3999 0C10.6267 0 9.99988 0.626801 9.99988 1.4V6.6C9.99988 7.3732 10.6267 8 11.3999 8H16.5999C17.3731 8 17.9999 7.3732 17.9999 6.6V1.4C17.9999 0.626801 17.3731 0 16.5999 0H11.3999Z" fill="#35364F"/>
<path fill-rule="evenodd" clip-rule="evenodd" d="M1.7 11.7V16.3H6.3V11.7H1.7ZM1.4 10C0.626801 10 0 10.6268 0 11.4V16.6C0 17.3732 0.626801 18 1.4 18H6.6C7.3732 18 8 17.3732 8 16.6V11.4C8 10.6268 7.3732 10 6.6 10H1.4Z" fill="#35364F"/>
<path fill-rule="evenodd" clip-rule="evenodd" d="M11.6999 11.7V16.3H16.2999V11.7H11.6999ZM11.3999 10C10.6267 10 9.99988 10.6268 9.99988 11.4V16.6C9.99988 17.3732 10.6267 18 11.3999 18H16.5999C17.3731 18 17.9999 17.3732 17.9999 16.6V11.4C17.9999 10.6268 17.3731 10 16.5999 10H11.3999Z" fill="#35364F"/>
</svg>
