<svg width="35" height="35" viewBox="0 0 35 35" fill="none" xmlns="http://www.w3.org/2000/svg">
<path d="M32.5824 23.0574C32.5743 22.0019 32.1574 21.0529 31.4969 20.3314C32.1677 19.5752 32.5464 18.4019 32.5385 17.3838C32.5272 15.9251 31.7504 14.6582 30.5978 13.9404C30.9315 13.341 31.1348 12.66 31.1291 11.9258C31.1149 10.0952 29.9029 8.4201 28.2428 7.85395C28.2407 7.83378 28.8385 6.0278 27.3368 4.54747C26.8167 4.03608 26.1331 3.68929 25.3729 3.59263C25.1365 2.92243 24.7301 2.29736 24.2065 1.79697C23.4764 1.09915 22.518 0.644358 21.4713 0.652493C20.9671 0.65639 20.4852 0.761731 20.0404 0.947395C18.487 1.59585 17.3896 3.22957 17.4032 4.99072C17.3939 3.7906 16.8697 2.65747 16.042 1.85972C15.5048 2.37522 15.092 3.02326 14.8596 3.71602C14.101 3.82444 13.4228 4.18175 12.9108 4.70115C11.455 6.18119 12.0559 8.01432 12.0559 8.02122C10.4048 8.61301 9.21881 10.3066 9.23296 12.1372C9.23863 12.8714 9.45239 13.5492 9.79535 14.1434C8.65395 14.8788 7.8968 16.1576 7.90808 17.6164C7.91594 18.6355 8.31325 19.8023 8.99513 20.5475C8.34586 21.2792 7.94377 22.2346 7.95197 23.29C7.96175 24.558 8.55832 25.6731 9.46852 26.4188C9.3964 26.729 9.34828 27.048 9.35088 27.3809C9.36838 29.6462 11.2202 31.6732 13.4856 31.6557C13.6408 31.6544 13.7882 31.6246 13.9385 31.6064C14.2913 32.3514 14.8286 32.9913 15.4912 33.4657C16.7693 32.5377 17.6042 30.9871 17.5914 29.3259C17.6062 31.2464 18.7518 33.0012 20.3908 33.8096C21.0071 34.1136 21.6928 34.2846 22.415 34.279C23.4351 34.2712 24.3748 33.9428 25.1441 33.3911C25.826 32.9021 26.3741 32.2378 26.7253 31.4654C26.8758 31.4813 27.0237 31.5089 27.1789 31.5077C29.4442 31.4902 31.2645 29.4349 31.247 27.1695C31.2444 26.8366 31.1914 26.5184 31.1145 26.2094C32.013 25.4497 32.5922 24.3254 32.5824 23.0574Z" fill="#FFA8BE"/>
<path d="M20.918 7.04102C21.2953 7.04102 21.6016 6.73477 21.6016 6.35742C21.6016 5.98008 21.2953 5.67383 20.918 5.67383C20.5406 5.67383 20.2344 5.98008 20.2344 6.35742C20.2344 6.73477 20.5406 7.04102 20.918 7.04102Z" fill="black"/>
<path d="M14.082 7.04102C14.4594 7.04102 14.7656 6.73477 14.7656 6.35742C14.7656 5.98008 14.4594 5.67383 14.082 5.67383C13.7047 5.67383 13.3984 5.98008 13.3984 6.35742C13.3984 6.73477 13.7047 7.04102 14.082 7.04102Z" fill="black"/>
<path d="M1.77734 23.1738C1.77734 24.4464 2.29332 25.6587 3.20599 26.5588C2.73677 29.3952 4.99878 32.2656 7.92969 32.2656C7.95088 32.2656 7.97173 32.2653 7.99217 32.2647C8.9639 33.941 10.7676 35 12.7148 35C14.7443 35 16.5577 33.7818 17.5 32.0268C18.4423 33.7818 20.2557 35 22.2852 35C24.2324 35 26.0361 33.941 27.0078 32.2647C27.0283 32.2653 27.0491 32.2656 27.0703 32.2656C29.6641 32.2656 31.8555 29.9804 31.8555 27.2754C31.8555 27.0451 31.8352 26.8082 31.794 26.5588C32.7067 25.6587 33.2227 24.4465 33.2227 23.1738C33.2227 22.1925 32.9133 21.2373 32.3424 20.4314C32.9291 19.5508 33.2227 18.452 33.2227 17.5C33.2227 16.0647 32.5851 14.7312 31.491 13.827C31.7331 13.2484 31.8555 12.6466 31.8555 12.0312C31.8555 10.1271 30.7442 8.35331 29.092 7.525C29.3427 5.44592 27.988 3.5402 25.9803 3.05409C25.1945 1.23758 23.4456 0 21.6016 0C19.8851 0 18.3455 1.00119 17.5 2.46203C16.6544 1.00119 15.1149 0 13.3984 0C11.5543 0 9.80533 1.23758 9.01968 3.05416C7 3.54334 5.65797 5.45856 5.90796 7.525C4.25585 8.35324 3.14453 10.1271 3.14453 12.0312C3.14453 12.6466 3.26689 13.2484 3.50902 13.827C2.41493 14.7313 1.77734 16.0647 1.77734 17.5C1.77734 18.457 2.07334 19.5543 2.65761 20.4313C2.08667 21.2373 1.77734 22.1925 1.77734 23.1738ZM21.6016 1.36719C22.7812 1.36719 23.7836 2.09344 24.3865 2.98826C23.5317 3.11992 22.743 3.51723 22.1192 4.14019C21.8521 4.40699 21.8518 4.83978 22.1186 5.10692C22.3854 5.37407 22.8184 5.37428 23.0854 5.10747C23.6025 4.59108 24.2893 4.30664 25.0195 4.30664C26.523 4.30664 27.7539 5.52255 27.7539 7.04102C27.7539 7.05906 27.7525 7.07663 27.7522 7.09461C27.5268 7.05954 27.2992 7.04102 27.0703 7.04102C24.4765 7.04102 22.2852 9.32627 22.2852 12.0312C22.2852 12.4088 22.5913 12.7148 22.9688 12.7148C23.3462 12.7148 23.6523 12.4088 23.6523 12.0312C23.6523 10.1013 25.2495 8.4082 27.0703 8.4082C28.9831 8.4082 30.4883 10.1853 30.4883 12.0312C30.4883 12.6057 30.3342 13.1687 30.0303 13.7046C29.8506 14.0217 29.9512 14.4241 30.2592 14.6192C31.2588 15.2524 31.8555 16.3293 31.8555 17.5C31.8555 19.4367 30.2872 21.123 28.4375 21.123C28.06 21.123 27.7539 21.4291 27.7539 21.8066C27.7539 22.1842 28.06 22.4902 28.4375 22.4902C29.5142 22.4902 30.534 22.0867 31.3539 21.415C31.6801 21.9471 31.8555 22.5538 31.8555 23.1738C31.8555 24.1767 31.4013 25.1299 30.6095 25.7888C30.4093 25.9553 30.3212 26.221 30.3821 26.4741C30.4546 26.7751 30.4883 27.0297 30.4883 27.2753C30.4883 29.3972 28.5691 31.1121 26.8388 30.8755C26.7907 30.869 26.7426 30.8625 26.6943 30.857C26.4012 30.8239 26.1209 30.9815 25.9971 31.2484C25.3248 32.6969 23.8677 33.6328 22.2852 33.6328C20.0619 33.6328 18.1836 31.6606 18.1836 29.3262C18.1836 27.0646 20.0236 25.2246 22.2852 25.2246C22.6626 25.2246 22.9688 24.9186 22.9688 24.541C22.9688 24.1635 22.6626 23.8574 22.2852 23.8574C20.6529 23.8574 19.1865 24.5771 18.1836 25.7147V12.7148C18.1836 11.961 18.7969 11.3477 19.5508 11.3477C19.9283 11.3477 20.2344 11.0416 20.2344 10.6641C20.2344 10.2865 19.9283 9.98047 19.5508 9.98047C19.0529 9.98047 18.5861 10.1149 18.1836 10.3483V4.99023C18.1836 3.06018 19.7807 1.36719 21.6016 1.36719ZM4.74086 14.6192C5.04882 14.4241 5.14951 14.0217 4.96966 13.7046C4.6658 13.1687 4.51172 12.6057 4.51172 12.0312C4.51172 10.1862 6.01576 8.4082 7.92969 8.4082C9.75051 8.4082 11.3477 10.1013 11.3477 12.0312C11.3477 12.4088 11.6537 12.7148 12.0312 12.7148C12.4088 12.7148 12.7148 12.4088 12.7148 12.0312C12.7148 9.32627 10.5235 7.04102 7.92969 7.04102C7.70082 7.04102 7.47318 7.05954 7.2478 7.09461C7.24746 7.07663 7.24609 7.05913 7.24609 7.04102C7.24609 5.51544 8.48456 4.30664 9.98047 4.30664C10.7107 4.30664 11.3976 4.59108 11.9145 5.10747C12.1816 5.37428 12.6144 5.374 12.8812 5.10699C13.148 4.83984 13.1478 4.40706 12.8808 4.14025C12.2571 3.5173 11.4683 3.11999 10.6135 2.98833C11.2163 2.09344 12.2188 1.36719 13.3984 1.36719C15.2193 1.36719 16.8164 3.06018 16.8164 4.99023V10.3483C16.4139 10.1149 15.9471 9.98047 15.4492 9.98047C15.0717 9.98047 14.7656 10.2865 14.7656 10.6641C14.7656 11.0416 15.0717 11.3477 15.4492 11.3477C16.2031 11.3477 16.8164 11.961 16.8164 12.7148V25.7147C15.8135 24.5771 14.3471 23.8574 12.7148 23.8574C12.3373 23.8574 12.0312 24.1635 12.0312 24.541C12.0312 24.9186 12.3373 25.2246 12.7148 25.2246C14.9764 25.2246 16.8164 27.0646 16.8164 29.3262C16.8164 31.6606 14.9381 33.6328 12.7148 33.6328C11.1322 33.6328 9.67524 32.6969 9.003 31.2484C8.87906 30.9815 8.59838 30.8241 8.30573 30.857C8.2574 30.8625 8.20935 30.869 8.16129 30.8755C6.21578 31.1416 4.02486 28.9386 4.61795 26.4741C4.67886 26.2209 4.59067 25.9553 4.39059 25.7888C3.59871 25.1299 3.14453 24.1767 3.14453 23.1738C3.14453 22.5537 3.31987 21.9469 3.64615 21.4148C4.46605 22.0868 5.48591 22.4902 6.5625 22.4902C6.94005 22.4902 7.24609 22.1842 7.24609 21.8066C7.24609 21.4291 6.94005 21.123 6.5625 21.123C4.70729 21.123 3.14453 19.4298 3.14453 17.5C3.14453 16.3293 3.74124 15.2524 4.74086 14.6192Z" fill="black"/>
<path d="M11.252 16.7519C10.9888 17.581 10.2119 18.1836 9.29687 18.1836C8.91932 18.1836 8.61328 18.4896 8.61328 18.8672C8.61328 19.2447 8.91932 19.5508 9.29687 19.5508C10.9619 19.5508 12.3519 18.3538 12.6535 16.7753C13.6041 16.6509 14.4989 16.2441 15.2214 15.5978C15.5027 15.3461 15.5268 14.9139 15.2751 14.6325C15.0234 14.3512 14.5913 14.3271 14.3099 14.5788C12.1177 16.5397 8.61328 14.9725 8.61328 12.0312C8.61328 11.6537 8.30724 11.3477 7.92969 11.3477C7.55214 11.3477 7.24609 11.6537 7.24609 12.0312C7.24609 14.4043 8.9829 16.3786 11.252 16.7519Z" fill="black"/>
<path d="M7.92969 26.5918C7.55214 26.5918 7.24609 26.8978 7.24609 27.2754C7.24609 27.6529 7.55214 27.959 7.92969 27.959C9.75051 27.959 11.3477 29.652 11.3477 31.582C11.3477 31.9596 11.6537 32.2656 12.0312 32.2656C12.4088 32.2656 12.7148 31.9596 12.7148 31.582C12.7148 28.8771 10.5235 26.5918 7.92969 26.5918Z" fill="black"/>
<path d="M13.3985 21.123C11.082 21.123 9.09317 22.3935 8.04591 24.2408C7.85976 24.5692 7.97509 24.9864 8.30349 25.1726C8.63195 25.3587 9.04908 25.2435 9.23529 24.915C10.0512 23.4756 11.5992 22.4902 13.3985 22.4902C13.776 22.4902 14.082 22.1842 14.082 21.8066C14.082 21.4291 13.776 21.123 13.3985 21.123Z" fill="black"/>
<path d="M19.7249 14.6325C19.4731 14.9139 19.4973 15.3461 19.7786 15.5978C20.5011 16.2441 21.396 16.6509 22.3466 16.7753C22.6482 18.3538 24.0381 19.5508 25.7031 19.5508C26.0806 19.5508 26.3867 19.2447 26.3867 18.8672C26.3867 18.4896 26.0806 18.1836 25.7031 18.1836C24.7881 18.1836 24.0112 17.581 23.7481 16.7519C26.0171 16.3786 27.7539 14.4043 27.7539 12.0312C27.7539 11.6537 27.4478 11.3477 27.0703 11.3477C26.6928 11.3477 26.3867 11.6537 26.3867 12.0312C26.3867 13.9159 24.8534 15.4492 22.9688 15.4492C22.1268 15.4492 21.3177 15.1401 20.6901 14.5788C20.4088 14.3271 19.9766 14.3511 19.7249 14.6325Z" fill="black"/>
<path d="M27.0703 26.5918C24.4765 26.5918 22.2852 28.8771 22.2852 31.582C22.2852 31.9596 22.5913 32.2656 22.9688 32.2656C23.3462 32.2656 23.6523 31.9596 23.6523 31.582C23.6523 29.652 25.2495 27.959 27.0703 27.959C27.4478 27.959 27.7539 27.6529 27.7539 27.2754C27.7539 26.8978 27.4478 26.5918 27.0703 26.5918Z" fill="black"/>
<path d="M25.7646 24.915C25.951 25.2439 26.3685 25.3586 26.6964 25.1727C27.0249 24.9865 27.1402 24.5693 26.9541 24.2408C25.9094 22.3979 23.9233 21.123 21.6016 21.123C21.2241 21.123 20.918 21.4291 20.918 21.8066C20.918 22.1842 21.2241 22.4902 21.6016 22.4902C23.3995 22.4902 24.9487 23.4754 25.7646 24.915Z" fill="black"/>
</svg>
