<svg width="32" height="32" viewBox="0 0 32 32" fill="none" xmlns="http://www.w3.org/2000/svg">
<rect width="32" height="32" rx="5" fill="#5188FD" fill-opacity="0.5"/>
<path d="M20.2962 24.4588L20.3674 22.1261C20.3834 21.5835 20.5015 21.0553 20.7172 20.5564L22.2747 16.9539C23.3551 14.4548 22.6117 11.6462 20.6668 9.96618C20.8738 9.12004 20.4566 8.22375 19.6372 7.86952C18.8179 7.51529 17.8791 7.82533 17.4046 8.5558C14.8483 8.2898 12.293 9.67229 11.2125 12.1713L9.65505 15.7738C9.43934 16.2727 9.13545 16.7206 8.7511 17.1039L7.1005 18.7539C6.95801 18.8965 6.89526 19.0996 6.93147 19.2975C6.96823 19.4957 7.09987 19.6613 7.28353 19.7407L11.4881 21.5584C11.5897 22.4001 12.0975 23.1459 12.8855 23.4866C13.6735 23.8273 14.5646 23.6863 15.2474 23.1837L19.4519 25.0015C19.6356 25.0809 19.8464 25.0634 20.0159 24.9544C20.1849 24.8452 20.2898 24.6604 20.2962 24.4588ZM8.58249 18.9782L9.59948 17.962C10.0927 17.4692 10.4838 16.8936 10.7613 16.252L12.3188 12.6494C13.3827 10.1886 16.2329 9.04561 18.6727 10.1005C21.1126 11.1553 22.2324 14.0146 21.1685 16.4755L19.611 20.078C19.3336 20.7196 19.1822 21.3989 19.1611 22.0958L19.1174 23.5328L8.58249 18.9782Z" fill="white"/>
</svg>
