<svg width="35" height="35" viewBox="0 0 35 35" fill="none" xmlns="http://www.w3.org/2000/svg">
<g clip-path="url(#clip0)">
<path d="M22.2465 22.796V16.132H7.755V27.5475H15.7978H15.7994L22.2465 22.796Z" fill="#E3F2FF"/>
<path d="M27.7556 23.4731C27.7569 23.4724 27.7578 23.4719 27.7583 23.4716C27.7578 23.4719 27.7569 23.4724 27.7556 23.4731Z" fill="#FE73B1"/>
<path d="M27.7583 23.4715C27.7585 23.4713 27.7586 23.4713 27.7583 23.4715V23.4715Z" fill="#FE73B1"/>
<path d="M27.752 23.475C27.7532 23.4743 27.7542 23.4737 27.7551 23.4732C27.7542 23.4736 27.7532 23.4742 27.752 23.475Z" fill="#FE73B1"/>
<path d="M27.7299 23.4885C27.7262 23.4906 27.7227 23.4927 27.7195 23.4945C27.7215 23.4933 27.7233 23.4922 27.7252 23.4912C27.7267 23.4904 27.7283 23.4894 27.7299 23.4885Z" fill="#FE73B1"/>
<path d="M27.753 23.4753C27.7499 23.4771 27.7461 23.4793 27.7419 23.4817C27.7443 23.4803 27.7471 23.4787 27.7498 23.4772C27.7509 23.4764 27.7521 23.4758 27.753 23.4753Z" fill="#FE73B1"/>
<path d="M27.7574 23.4721C27.7543 23.4739 27.7517 23.4754 27.7489 23.477C27.7467 23.4783 27.744 23.4798 27.7409 23.4817C27.7412 23.4815 27.7414 23.4813 27.7418 23.4812C27.7369 23.484 27.7327 23.4864 27.7291 23.4885C27.7308 23.4875 27.7325 23.4864 27.7343 23.4854C27.7314 23.4871 27.7282 23.4889 27.7247 23.4909C27.7193 23.4941 27.7154 23.4963 27.7128 23.4979C27.7146 23.4968 27.7169 23.4955 27.7195 23.494C27.5554 23.5887 26.7826 24.035 23.7722 25.7729L26.8867 31.1672L30.8334 28.8886C32.639 27.8459 33.4995 25.8152 33.1485 23.8873C31.6542 22.6861 29.5175 22.4558 27.7574 23.4721Z" fill="#FE73B1"/>
<path d="M16.7408 32.885C18.2328 34.4047 20.6161 34.7877 22.546 33.6735L26.5121 31.3836L23.4306 26.0464L19.1282 28.5304C17.538 29.4489 16.6655 31.1529 16.7408 32.885Z" fill="#FEC459"/>
<path d="M21.6997 14.0356L18.1452 9.29648V6.56217H11.6514V9.29641L8.09692 14.0355C7.74214 14.5092 7.55005 15.0847 7.55005 15.6761V16.132H22.2466V15.6761C22.2466 15.0848 22.0545 14.5092 21.6997 14.0356Z" fill="#ED5151"/>
<path d="M19.5122 5.19505V2.05066C19.5122 1.29535 18.9004 0.683538 18.1451 0.683538H11.1728C10.4175 0.683538 9.80566 1.29535 9.80566 2.05066V5.19505C9.80566 5.95036 10.4175 6.56217 11.1728 6.56217H18.1451C18.9004 6.56217 19.5122 5.95042 19.5122 5.19505Z" fill="#57555C"/>
<path d="M15.7985 27.5481L15.7978 27.5475H7.68677V28.9146C7.68677 30.4246 8.91101 31.6488 10.421 31.6488H15.8628L15.8635 31.6481L15.7985 27.5481Z" fill="#ED5151"/>
<path d="M8.59245 9.98002C8.96979 9.98002 9.27597 9.67376 9.27597 9.29649C9.27597 8.91914 8.96973 8.61295 8.59245 8.61295C8.21511 8.61295 7.90894 8.91921 7.90894 9.29649C7.90887 9.67376 8.21511 9.98002 8.59245 9.98002Z" fill="black"/>
<path d="M14.7445 21.3954H12.6939V19.3447C12.6939 18.9673 12.3878 18.6612 12.0103 18.6612C11.6329 18.6612 11.3268 18.9673 11.3268 19.3447V21.3954H9.27618C8.8987 21.3954 8.59265 21.7015 8.59265 22.079C8.59265 22.4565 8.89877 22.7625 9.27618 22.7625H11.3268V24.8132C11.3268 25.1906 11.6329 25.4967 12.0103 25.4967C12.3878 25.4967 12.6939 25.1906 12.6939 24.8132V22.7625H14.7445C15.122 22.7625 15.428 22.4564 15.428 22.079C15.4281 21.7015 15.1221 21.3954 14.7445 21.3954Z" fill="black"/>
<path d="M25.7237 20.0091L22.9471 21.6122V15.6761C22.9471 14.9423 22.7044 14.214 22.2635 13.6255L18.8457 9.06855V7.12811C19.6413 6.84592 20.2128 6.08617 20.2128 5.19497V2.05064C20.2128 0.919912 19.2929 0 18.1622 0H5.85813C4.72739 0 3.80741 0.919912 3.80741 2.05064V5.19504C3.80741 6.0861 4.37897 6.84599 5.17453 7.12817V9.06862L1.75649 13.6258C1.31585 14.2141 1.07324 14.9423 1.07324 15.6761V28.9146C1.07324 30.7992 2.60647 32.3323 4.49101 32.3323H15.4765C17.0092 34.9015 20.3141 35.7612 22.9047 34.2655L31.1923 29.4805C33.7868 27.9822 34.7124 24.6421 33.1936 22.0106C31.6826 19.3934 28.3414 18.4976 25.7237 20.0091ZM15.3957 26.8639H2.44029V16.8156H21.58V22.4014L17.4361 24.7941C16.5721 25.2932 15.8737 26.0036 15.3957 26.8639ZM5.17453 2.05064C5.17453 1.67371 5.48119 1.36712 5.85806 1.36712H18.1621C18.5391 1.36712 18.8457 1.67378 18.8457 2.05064V5.19504C18.8457 5.57197 18.5391 5.87856 18.1621 5.87856H5.85813C5.48119 5.87856 5.1746 5.5719 5.1746 5.19504C5.17453 5.19504 5.17453 2.05064 5.17453 2.05064ZM6.40493 9.70655C6.49366 9.58829 6.54165 9.44433 6.54165 9.2964V7.24575H17.4786V8.61287H11.3266C10.9491 8.61287 10.6431 8.91898 10.6431 9.2964C10.6431 9.67388 10.9492 9.97992 11.3266 9.97992H17.8204L21.1695 14.4453C21.3884 14.7375 21.5244 15.0872 21.5655 15.4484H2.45485C2.49587 15.0872 2.63184 14.7376 2.85052 14.4456L6.40493 9.70655ZM2.44029 28.9146V28.2242H14.8595C14.6427 29.1105 14.6442 30.0571 14.8924 30.9653H4.49101C3.36027 30.9652 2.44029 30.0453 2.44029 28.9146ZM22.2212 33.0815C20.2595 34.2143 17.7527 33.5444 16.6192 31.5813C15.4803 29.5993 16.1705 27.1039 18.1198 25.9779L21.8302 23.8357L25.9315 30.9392L22.2212 33.0815ZM30.5087 28.2966L27.1155 30.2557L23.0141 23.152L26.4073 21.193C28.3703 20.0598 30.8762 20.7309 32.0097 22.694C33.1482 24.6671 32.4559 27.1722 30.5087 28.2966Z" fill="black"/>
</g>
<defs>
<clipPath id="clip0">
<rect width="35" height="35" fill="white"/>
</clipPath>
</defs>
</svg>
