<svg width="35" height="35" viewBox="0 0 35 35" fill="none" xmlns="http://www.w3.org/2000/svg">
<g clip-path="url(#clip0)">
<path d="M29.0093 32.7425C29.1839 33.104 29.1604 33.5298 28.9471 33.8699C28.7338 34.21 28.3607 34.4165 27.9593 34.4167H16.1934C15.6925 34.4146 15.2487 34.093 15.0909 33.6175C14.7059 32.5092 13.8601 30.5608 12.4601 29.925C10.799 30.5265 9.10683 31.0386 7.39094 31.4592C6.55451 31.6376 5.72693 31.1219 5.51844 30.2925C5.0226 28.8575 5.71094 28.4667 5.48927 27.6092C5.3376 27.0142 4.7776 26.8683 4.33427 26.5533C3.97844 26.3025 4.6201 25.48 4.6201 25.48C4.6201 25.48 3.9376 24.9725 3.6926 24.7508C3.43594 24.535 3.79177 24.1733 4.11844 23.4908C4.25177 23.1967 4.28853 22.868 4.22344 22.5517C4.10677 21.9217 3.16177 21.6883 2.6951 21.3383C1.72094 20.615 1.66844 20.44 4.21177 17.6925C4.74442 17.0733 5.08141 16.31 5.1801 15.4992C5.22677 15.225 5.50677 14.9275 5.50094 14.595C5.48927 13.7608 4.28177 13.4167 4.17094 12.6058C4.08344 11.9758 4.89427 10.8267 5.15677 9.70083C5.30035 9.01169 5.48541 8.33184 5.71094 7.665C6.19524 6.32211 6.94741 5.09166 7.92177 4.04833C9.35094 2.53167 11.3343 1.87833 13.3409 1.41167C20.6793 -0.279999 24.3601 0.647501 28.5426 3.9375C30.12 5.11172 31.271 6.76867 31.8209 8.65667C32.2421 10.2152 32.4385 11.8259 32.4043 13.44C32.3459 17.7217 29.6218 19.2208 28.4084 21.9917C27.6662 23.6994 27.3885 25.5729 27.6034 27.4225C27.7648 29.2568 28.2383 31.0501 29.0034 32.725L29.0093 32.7425Z" fill="#FFE0B2"/>
<path d="M29.0034 32.725C28.2383 31.0501 27.7648 29.2568 27.6034 27.4225C27.3884 25.5729 27.6661 23.6994 28.4084 21.9917C29.6217 19.2208 32.3459 17.7217 32.4042 13.44C32.4385 11.8259 32.242 10.2152 31.8209 8.65666C31.271 6.76866 30.12 5.11172 28.5426 3.9375C25.5157 1.55633 22.7442 0.419996 18.6667 0.611329C21.8313 0.786329 24.2189 1.91216 26.7932 3.93633C28.3705 5.11055 29.5216 6.7675 30.0715 8.6555C30.4926 10.214 30.689 11.8247 30.6548 13.4388C30.5965 17.7205 27.8723 19.2197 26.659 21.9905C25.9167 23.6982 25.639 25.5717 25.854 27.4213C26.0154 29.2556 26.4889 31.0489 27.254 32.7238L27.2598 32.7413C27.435 33.103 27.4118 33.5294 27.1983 33.8698C26.9848 34.2103 26.6111 34.4169 26.2092 34.4167H27.9592C28.3607 34.4165 28.7338 34.2099 28.9471 33.8699C29.1604 33.5298 29.1839 33.104 29.0092 32.7425L29.0034 32.725Z" fill="#DFC49C"/>
<path d="M28.9101 12.7633C28.9099 13.5289 28.6251 14.267 28.1109 14.8342H28.1051C27.8685 16.1275 27.0573 17.2434 25.9001 17.8675C26.2403 18.3389 26.5004 18.8631 26.6701 19.4192C26.7093 19.5397 26.729 19.6657 26.7284 19.7925C26.7268 20.277 26.4382 20.7145 25.9934 20.9067C25.9223 20.9368 25.8479 20.9584 25.7717 20.9708V20.9767C25.3193 21.0656 24.8547 20.8973 24.5642 20.5392C24.1796 20.0928 23.6789 19.7617 23.1176 19.5825C23.0184 19.5475 22.9251 19.5183 22.8317 19.4833C21.2276 18.9058 20.7317 18.2992 20.6151 17.3017H20.5801C19.9534 17.3024 19.3321 17.1857 18.7484 16.9575C18.0306 17.7909 16.9221 18.177 15.8418 17.9699C14.7616 17.7627 13.8745 16.994 13.5159 15.9542H13.5101C12.2308 16.4257 10.8017 16.2406 9.68482 15.4588C8.5679 14.677 7.90486 13.3975 7.91006 12.0342C7.90724 11.1385 8.19594 10.2663 8.73256 9.54916C8.66709 9.35761 8.63359 9.15659 8.6334 8.95416C8.63164 8.08753 9.24215 7.34026 10.0917 7.16916C10.0859 7.09916 10.0801 7.02916 10.0801 6.95333C10.0797 5.65392 11.1315 4.59956 12.4309 4.59666C12.7847 4.59432 13.1341 4.6742 13.4517 4.83C14.0727 3.78443 15.199 3.14372 16.4151 3.14416C17.251 3.14205 18.0586 3.44723 18.6842 4.00166C19.0418 3.42486 19.6923 3.09683 20.3686 3.15217C21.045 3.20751 21.6335 3.63691 21.8926 4.26416C22.0572 4.24556 22.2227 4.23582 22.3884 4.235C24.6505 4.23655 26.5343 5.97075 26.7226 8.225H26.7342C27.3787 8.22929 27.9729 8.574 28.2965 9.13136C28.6202 9.68872 28.625 10.3756 28.3092 10.9375C28.7005 11.4657 28.9112 12.106 28.9101 12.7633Z" fill="#EF314C"/>
<path d="M28.3092 10.9375C28.625 10.3757 28.6201 9.68873 28.2965 9.13138C27.9729 8.57402 27.3787 8.2293 26.7342 8.22501H26.7225C26.5343 5.97076 24.6505 4.23656 22.3884 4.23501C22.2227 4.23583 22.0572 4.24557 21.8925 4.26418C21.612 3.58688 20.9515 3.14496 20.2184 3.14418C19.9115 3.14524 19.6101 3.22561 19.3434 3.37751C19.7017 3.575 19.9832 3.88731 20.1425 4.26418C20.3072 4.24557 20.4727 4.23583 20.6384 4.23501C22.9005 4.23656 24.7843 5.97076 24.9725 8.22501H24.9842C25.6287 8.2293 26.2229 8.57402 26.5465 9.13138C26.8701 9.68873 26.875 10.3757 26.5592 10.9375C27.4296 12.1179 27.3466 13.7483 26.3609 14.8342H26.355C26.1185 16.1275 25.3073 17.2434 24.1501 17.8675C24.4902 18.3389 24.7504 18.8632 24.9201 19.4192C24.9593 19.5397 24.979 19.6658 24.9784 19.7925C24.9736 20.0974 24.8535 20.3892 24.6424 20.6092C24.9312 20.9167 25.3575 21.0547 25.7717 20.9749V20.9691C25.8479 20.9566 25.9223 20.9351 25.9934 20.9049C26.4382 20.7128 26.7268 20.2753 26.7284 19.7908C26.729 19.664 26.7093 19.538 26.67 19.4174C26.5004 18.8614 26.2402 18.3372 25.9 17.8658C27.0573 17.2417 27.8685 16.1258 28.105 14.8324H28.1109C29.0966 13.7466 29.1796 12.1161 28.3092 10.9358V10.9375Z" fill="#BB193B"/>
<path d="M27.0085 34.4167H24.3601C23.1351 31.0975 22.0326 27.5333 22.686 23.8642C22.931 22.4758 23.4501 20.9942 22.8318 19.4833C22.9251 19.5183 23.0185 19.5475 23.1176 19.5825C23.6789 19.7617 24.1797 20.0928 24.5643 20.5392C24.8548 20.8973 25.3193 21.0656 25.7718 20.9767C25.7166 21.9507 25.5701 22.9175 25.3343 23.8642C24.681 27.5333 25.7835 31.0975 27.0085 34.4167Z" fill="#BB193B"/>
<path d="M22.0174 9.57134C21.701 9.51083 21.3955 9.71817 21.3349 10.0345C21.2202 10.6361 20.8732 11.1682 20.3689 11.5156C19.3989 12.1695 18.0977 12.0224 17.2982 11.1685C17.0822 10.9295 16.7133 10.9108 16.4742 11.1268C16.2352 11.3428 16.2165 11.7117 16.4325 11.9508C16.9265 12.4966 17.5794 12.8735 18.2992 13.0282C17.9732 13.4888 17.4436 13.7621 16.8794 13.7608C16.5572 13.7608 16.296 14.022 16.296 14.3442C16.296 14.6663 16.5572 14.9275 16.8794 14.9275C18.088 14.9334 19.1729 14.1874 19.6 13.0568C21.0508 12.8168 22.1995 11.7002 22.4805 10.2568C22.5104 10.1044 22.4784 9.9464 22.3914 9.81775C22.3045 9.6891 22.1699 9.60042 22.0174 9.57134Z" fill="#F5F5F5"/>
<path d="M17.1237 7.81083C17.1237 7.48867 16.8626 7.2275 16.5404 7.2275C15.0592 7.22943 13.859 8.42967 13.8571 9.91083C13.8571 10.233 14.1182 10.4942 14.4404 10.4942C14.7626 10.4942 15.0237 10.233 15.0237 9.91083C15.0237 9.0732 15.7028 8.39417 16.5404 8.39417C16.8626 8.39417 17.1237 8.133 17.1237 7.81083Z" fill="#F5F5F5"/>
<path d="M4.60839 15.4C4.52893 16.0997 4.24302 16.7598 3.78705 17.2964C1.95422 19.2733 1.43097 19.9541 1.49514 20.6588C1.5593 21.3634 2.32989 21.8423 2.95347 22.1603C3.2043 22.2886 3.6243 22.5038 3.65347 22.6578C3.69169 22.8553 3.66933 23.0596 3.5893 23.2441C3.27255 23.9114 2.6478 24.6342 3.30405 25.1872C3.42947 25.2986 3.6453 25.4683 3.84189 25.6188C3.6959 25.8754 3.63045 26.1699 3.65405 26.4641C3.71764 26.9033 4.0198 27.0638 4.40364 27.2808C4.91872 27.5759 5.0523 27.6628 4.87672 28.4037C4.39839 30.4249 5.57205 32.4287 7.50814 32.0268C9.16918 31.6252 10.8073 31.1339 12.4151 30.555C13.2201 31.0351 13.9849 32.2018 14.5373 33.8065C14.7783 34.5178 15.4447 34.9974 16.1957 35H27.9592C28.5649 34.9996 29.1272 34.686 29.446 34.1711C29.7648 33.6561 29.7946 33.0129 29.5249 32.4707C28.7964 30.8502 28.343 29.1197 28.1832 27.3502C27.9762 25.6055 28.238 23.8372 28.9416 22.2273C30.0966 19.5889 32.9251 17.9235 32.9876 13.4499C33.0622 8.32475 31.4773 5.49617 28.9001 3.47784C24.3041 -0.138831 20.3438 -0.802081 13.2085 0.844086C11.2718 1.29092 9.07847 1.97284 7.49822 3.64409C6.46903 4.74424 5.67506 6.04276 5.16489 7.46025C4.94914 8.08436 4.77378 8.72171 4.63989 9.36834C4.51755 9.91241 4.32889 10.4394 4.07814 10.9375C3.43997 12.3661 3.28597 12.9208 4.4468 13.9854C5.31655 14.7881 4.74255 14.5833 4.60839 15.4ZM22.6334 16.9038C22.588 16.7558 22.4857 16.6319 22.349 16.5593C22.2122 16.4868 22.0522 16.4716 21.9042 16.5171C20.939 16.8189 19.8995 16.7817 18.9584 16.4115C18.7273 16.3304 18.4701 16.3944 18.3039 16.5743C17.4533 17.5446 16.0035 17.707 14.9592 16.9491C13.9149 16.1911 13.62 14.7624 14.2789 13.6529C14.4446 13.3767 14.3551 13.0183 14.0788 12.8526C13.8025 12.6868 13.4442 12.7764 13.2785 13.0527C13.1392 13.2893 13.0273 13.541 12.9448 13.8028C12.4798 13.7772 12.1153 13.3936 12.1136 12.9278C12.1133 12.7739 12.0515 12.6265 11.9419 12.5184C11.8324 12.4102 11.6841 12.3504 11.5302 12.3521C10.4219 12.3521 10.9323 14.7543 12.7552 14.9549C12.7573 15.1505 12.7751 15.3455 12.8083 15.5383C11.5072 15.8138 10.1606 15.3438 9.31354 14.3185C8.46645 13.2931 8.25901 11.8821 8.77514 10.6563C8.90597 10.7882 9.05183 10.9043 9.20972 11.0023C9.48582 11.1683 9.84427 11.0791 10.0103 10.803C10.1764 10.5269 10.0872 10.1685 9.81114 10.0024C9.34082 9.71583 9.11742 9.15222 9.26367 8.62124C9.40993 8.09026 9.89041 7.72052 10.4411 7.71517C10.8282 7.71412 11.1925 7.89791 11.4217 8.20984C11.5461 8.37708 11.7503 8.46525 11.9574 8.44112C12.1644 8.41699 12.3429 8.28424 12.4255 8.09287C12.5081 7.9015 12.4824 7.68058 12.358 7.51334C11.9618 6.98373 11.3612 6.64504 10.7031 6.58C10.8905 5.68349 11.7376 5.08319 12.6456 5.20334C12.6018 5.3235 12.5557 5.44309 12.5236 5.56734C12.4568 5.87367 12.644 6.17805 12.9476 6.25649C13.2512 6.33494 13.5625 6.15937 13.6524 5.859C13.8839 4.97365 14.5266 4.25339 15.38 3.92295C16.2333 3.5925 17.1935 3.6921 17.9609 4.19067C17.8733 4.43727 17.8272 4.69667 17.8244 4.95834C17.8244 5.2805 18.0856 5.54167 18.4077 5.54167C18.7299 5.54167 18.9911 5.2805 18.9911 4.95834C18.9911 4.51996 19.2249 4.11488 19.6046 3.89569C19.9842 3.6765 20.452 3.6765 20.8316 3.89569C21.2113 4.11488 21.4451 4.51996 21.4451 4.95834C21.4451 5.2805 21.7063 5.54167 22.0285 5.54167C22.3506 5.54167 22.6118 5.2805 22.6118 4.95834C22.6118 4.91284 22.6007 4.87084 22.5984 4.82592C24.2686 4.92916 25.673 6.11637 26.0529 7.74609C25.7808 7.82544 25.5252 7.95287 25.2981 8.12234C25.0403 8.31564 24.9881 8.68127 25.1814 8.939C25.3747 9.19674 25.7403 9.24897 25.9981 9.05567C26.3743 8.77129 26.8801 8.72718 27.2999 8.94214C27.7197 9.1571 27.9796 9.59325 27.9688 10.0648C27.958 10.5363 27.6785 10.9601 27.2493 11.1557C26.9576 11.2926 26.8321 11.6401 26.969 11.9318C27.1059 12.2235 27.4534 12.349 27.7451 12.2121C27.8999 12.1372 28.0462 12.0458 28.1815 11.9397C28.5347 12.9577 28.1941 14.0874 27.3371 14.7406C26.4801 15.3938 25.3004 15.4226 24.4126 14.812C24.8418 14.21 24.9018 13.4197 24.5683 12.7598C24.4245 12.4715 24.0741 12.3544 23.7858 12.4982C23.4974 12.6421 23.3803 12.9924 23.5241 13.2808C23.7168 13.6664 23.5971 14.135 23.243 14.3809C23.0357 14.5193 22.7794 14.5632 22.5379 14.5016C22.2964 14.4401 22.0924 14.279 21.9766 14.0583C21.8837 13.8707 21.6973 13.7472 21.4883 13.7348C21.2792 13.7224 21.0796 13.823 20.9652 13.9984C20.8508 14.1738 20.8392 14.397 20.9347 14.5833C21.3984 15.5252 22.5083 15.9524 23.4839 15.5645C24.4135 16.3655 25.689 16.6337 26.8626 16.275C26.2861 17.0623 25.4234 17.5915 24.4604 17.7485C24.1422 17.7996 23.9257 18.0989 23.9768 18.417C24.0279 18.7351 24.3272 18.9517 24.6453 18.9006C25.0003 18.839 25.3472 18.7377 25.6796 18.5984C25.8591 18.9163 26.0048 19.2522 26.1141 19.6006C26.2063 19.8935 26.0735 20.2101 25.8 20.3496C25.5265 20.4891 25.1922 20.4107 25.0093 20.1641C24.557 19.6339 23.9654 19.2409 23.3013 19.0295C22.0407 18.6078 21.5542 18.2303 21.3477 17.8197C21.6505 17.782 21.9496 17.7194 22.242 17.6324C22.549 17.538 22.7219 17.213 22.6287 16.9056L22.6334 16.9038ZM23.6764 20.5123C23.842 20.6293 23.9923 20.7664 24.1238 20.9207C24.3916 21.2374 24.757 21.4562 25.1627 21.5425C24.9405 23.8362 23.4384 26.1596 26.1783 33.8339H24.7655C21.493 24.8366 23.9926 23.7137 23.6717 20.5141L23.6764 20.5123ZM4.75014 12.5271C4.82098 12.1382 4.95247 11.7628 5.1398 11.4147C5.42045 10.8471 5.63365 10.2486 5.77505 9.63142C5.89986 9.03266 6.06215 8.44233 6.26097 7.86392C6.71777 6.59485 7.42833 5.43215 8.3493 4.44675C9.71197 3.00359 11.616 2.40917 13.4727 1.981C21.0806 0.225752 24.3945 1.4175 28.1815 4.396C29.6627 5.49189 30.7433 7.04363 31.2574 8.813C31.6652 10.3182 31.8553 11.8739 31.8221 13.433C31.7637 17.5163 29.1387 18.8644 27.8735 21.7618C27.0862 23.5618 26.7932 25.5392 27.0247 27.4902C27.199 29.3945 27.692 31.2559 28.4831 32.9968C28.57 33.1773 28.5582 33.3898 28.4519 33.5596C28.3456 33.7294 28.1596 33.8328 27.9592 33.8333H27.4167C24.5001 25.8119 26.1876 24.0724 26.3405 21.3809C27.1222 20.9815 27.4974 20.073 27.2254 19.2383C27.0949 18.826 26.9223 18.4282 26.7103 18.0513C27.7018 17.3381 28.3925 16.2816 28.6481 15.0873C29.6422 13.9031 29.7721 12.2175 28.9713 10.8949C29.2215 10.2428 29.1742 9.51379 28.8416 8.8995C28.5091 8.28521 27.9246 7.84701 27.2417 7.7C26.797 5.29869 24.666 3.58152 22.2251 3.6575C21.8445 3.06078 21.2175 2.665 20.5152 2.57812C19.8128 2.49124 19.1083 2.72232 18.5938 3.20834C16.8396 2.07169 14.5066 2.47249 13.2324 4.12942C12.3848 3.88802 11.4735 4.04222 10.7526 4.54906C10.0316 5.05589 9.57806 5.86116 9.5183 6.74042C8.45583 7.1848 7.8626 8.32487 8.10839 9.45C7.04535 11.0767 7.08181 13.1872 8.20038 14.7762C9.31895 16.3652 11.2935 17.1114 13.1834 16.6594C13.7148 17.6667 14.6854 18.3688 15.8084 18.5583C16.9314 18.7478 18.0786 18.4031 18.9111 17.626C19.3071 17.75 19.7156 17.8296 20.1291 17.8634C20.3806 18.7968 21.0485 19.4075 22.3645 19.9296C22.6037 20.9365 22.5692 21.989 22.2647 22.9781C21.4568 26.8333 22.1381 29.9466 23.5253 33.8333H16.1957C15.9435 33.831 15.7205 33.6689 15.6404 33.4297C15.2607 32.1912 14.606 31.0546 13.7253 30.1047C14.3571 29.8836 14.8675 29.7016 15.0804 29.6345C17.5753 28.8493 18.8236 27.713 18.7892 26.2558C18.7897 26.0999 18.7261 25.9505 18.6133 25.8429C18.5004 25.7352 18.3482 25.6787 18.1925 25.6865C17.8705 25.6941 17.6156 25.9613 17.6231 26.2833C17.6564 27.7043 15.102 28.3833 13.7731 28.8499C11.6425 29.6426 9.47162 30.3227 7.26955 30.8875C6.72488 30.99 6.19632 30.6446 6.07139 30.1047C5.61172 28.7793 6.34264 28.5979 6.05505 27.4657C5.88297 26.7878 5.40347 26.5178 4.85747 26.1998C5.02897 25.8388 5.24597 25.7413 5.1993 25.4001C5.15264 25.0588 4.97647 25.0408 4.25722 24.4668C4.69824 23.8906 4.8929 23.1632 4.79855 22.4438C4.61714 21.4853 3.45689 21.1843 3.04214 20.8758C2.90567 20.7804 2.77676 20.6747 2.65655 20.5596C2.66647 20.2224 3.9498 18.8382 4.63989 18.0944C5.25314 17.3922 5.64202 16.5224 5.75639 15.5972C5.93514 15.2881 6.04665 14.9448 6.08364 14.5898C6.07197 13.4709 4.81605 13.0083 4.75014 12.5271Z" fill="black"/>
</g>
<defs>
<clipPath id="clip0">
<rect width="35" height="35" fill="white"/>
</clipPath>
</defs>
</svg>
