<svg width="22" height="22" viewBox="0 0 22 22" fill="none" xmlns="http://www.w3.org/2000/svg">
<path d="M9.80758 0.9C4.89598 0.9 0.9 4.89598 0.9 9.80758C0.9 14.7194 4.89598 18.7152 9.80758 18.7152C14.7194 18.7152 18.7152 14.7194 18.7152 9.80758C18.7152 4.89598 14.7194 0.9 9.80758 0.9ZM9.80758 16.8892C5.90292 16.8892 2.72602 13.7123 2.72602 9.80762C2.72602 5.90296 5.90292 2.72602 9.80758 2.72602C13.7122 2.72602 16.8891 5.90292 16.8891 9.80758C16.8891 13.7122 13.7122 16.8892 9.80758 16.8892Z" fill="#35364F" stroke="#35364F" stroke-width="0.2"/>
<path d="M16.1714 14.8802L20.8327 19.5415C20.8327 19.5415 20.8327 19.5415 20.8327 19.5415C21.1894 19.8979 21.1894 20.4761 20.8327 20.8325C20.6544 21.0108 20.4205 21.1 20.1872 21.1C19.9536 21.1 19.7199 21.0108 19.5417 20.8325L14.8804 16.1713C14.5237 15.8149 14.5237 15.2366 14.8804 14.8802L16.1714 14.8802ZM16.1714 14.8802C15.8148 14.5236 15.2371 14.5236 14.8804 14.8802L16.1714 14.8802Z" fill="#35364F" stroke="#35364F" stroke-width="0.2"/>
</svg>
