<svg width="375" height="812" viewBox="0 0 375 812" fill="none" xmlns="http://www.w3.org/2000/svg">
<g clip-path="url(#clip0)">
<rect x="3.05176e-05" width="375" height="812" fill="white"/>
<rect width="375" height="812" fill="white"/>
<path d="M290.235 469.403C218.161 368.3 136.796 432.981 105.123 477.959C81.5171 571.838 -167.562 507.279 -76.8967 582.241C-4.36401 642.21 -72.5942 799.532 -115.776 870.697L615.263 810.215C683.947 765.328 605.282 631.245 495.027 640.367C384.772 649.489 380.329 595.782 290.235 469.403Z" fill="#FEA41D"/>
<path d="M-158.141 160.765C-216.94 155.566 -228.907 97.4634 -227.541 69.0618L222.041 -57.2911C222.041 -57.2911 277.742 38.3527 297.28 82.0001C316.818 125.647 267.075 147.296 228.28 134.923C189.485 122.55 182.787 205.899 154.816 261.605C126.844 317.312 -16.7792 238.71 -24.139 190.347C-31.4987 141.984 -84.6409 167.264 -158.141 160.765Z" fill="#6CD8D1"/>
<path d="M104.239 -171.241C26.2592 -214.977 132.549 -366.298 195.441 -436.491L337.685 -530L466.103 -334.654C358.9 -85.0493 522.574 -71.8835 572.587 -30.2912C622.6 11.3012 488.541 127.607 423.884 172.124C359.227 216.641 239.082 265.432 124.219 248.357C9.35514 231.282 112.459 139.28 166.979 57.2178C223.957 -28.5431 201.715 -116.57 104.239 -171.241Z" fill="#255ED6"/>
<path d="M346.28 800C355.132 900.328 91.4246 843.175 -0.719922 680L-17 145C-17 145 -7.38441 279.775 44.4605 115.881C75.3396 18.2655 264.253 -76.3863 296.317 -11.1595C368.515 135.709 406.868 91.8231 520.381 134.412C633.893 177.001 416.884 570.156 334.28 636C265.28 691 340.28 732 346.28 800Z" fill="#2663E3"/>
<path d="M-15.6106 400.066C-93.5025 402.769 -42.3519 451.975 -28 527C-50.9619 672.543 47.4893 706.102 112 718C176.511 729.898 177.471 655.717 177.471 655.717C212.732 432.702 340.083 484.591 396.263 472.945C452.442 461.299 394.694 233.126 367.234 176.233C339.774 119.339 341.231 170.314 248.257 139.635C155.283 108.956 133.186 175.848 135.878 256.414C138.692 340.611 81.7543 396.688 -15.6106 400.066Z" fill="#255ED6"/>
<path d="M164 727L163.576 726.734L164 727ZM0.684543 665.388C1.03975 665.677 1.40406 665.976 1.7773 666.284L2.41428 665.513C2.03923 665.203 1.67288 664.903 1.31546 664.612L0.684543 665.388ZM4.07346 668.206C4.79325 668.814 5.5395 669.451 6.31112 670.113L6.96232 669.354C6.18927 668.691 5.44122 668.053 4.7193 667.442L4.07346 668.206ZM8.54342 672.038C9.28264 672.678 10.0417 673.337 10.8197 674.014L11.4761 673.26C10.6977 672.582 9.93797 671.922 9.19793 671.282L8.54342 672.038ZM13.014 675.926C13.7516 676.57 14.5041 677.226 15.2711 677.896L15.9286 677.142C15.1617 676.473 14.409 675.816 13.6713 675.173L13.014 675.926ZM17.4827 679.825C18.2221 680.469 18.9735 681.124 19.7364 681.787L20.3925 681.032C19.63 680.369 18.8789 679.715 18.1398 679.071L17.4827 679.825ZM21.9577 683.715C22.7018 684.359 23.4559 685.011 24.2195 685.67L24.8725 684.912C24.1096 684.255 23.3561 683.603 22.6125 682.959L21.9577 683.715ZM26.4484 687.587C27.1991 688.23 27.9582 688.88 28.7253 689.533L29.3739 688.772C28.6077 688.119 27.8494 687.471 27.0994 686.828L26.4484 687.587ZM30.963 691.434C31.7161 692.071 32.4763 692.712 33.2432 693.356L33.8863 692.59C33.1204 691.947 32.3612 691.307 31.609 690.67L30.963 691.434ZM35.5077 695.25C36.2636 695.879 37.0255 696.511 37.7932 697.144L38.4296 696.373C37.6632 695.741 36.9024 695.11 36.1476 694.481L35.5077 695.25ZM40.087 699.028C40.8472 699.649 41.6125 700.272 42.3828 700.895L43.0117 700.117C42.2428 699.495 41.4787 698.874 40.7198 698.254L40.087 699.028ZM44.704 702.762C45.4702 703.375 46.2409 703.988 47.0157 704.6L47.6359 703.816C46.8626 703.205 46.0934 702.593 45.3287 701.981L44.704 702.762ZM49.3525 706.436C50.1294 707.043 50.9101 707.648 51.6944 708.253L52.3047 707.461C51.5221 706.858 50.7431 706.253 49.9679 705.648L49.3525 706.436ZM54.0493 710.054C54.8365 710.653 55.6271 711.249 56.4208 711.843L57.0199 711.042C56.2283 710.45 55.4396 709.855 54.6542 709.258L54.0493 710.054ZM58.8003 713.61C59.5963 714.196 60.3951 714.78 61.1964 715.36L61.783 714.55C60.9839 713.972 60.1873 713.389 59.3934 712.805L58.8003 713.61ZM63.6074 717.091C64.4134 717.665 65.2216 718.235 66.0319 718.8L66.6043 717.98C65.7966 717.417 64.9908 716.848 64.1871 716.277L63.6074 717.091ZM68.4727 720.487C69.2911 721.047 70.1112 721.603 70.9328 722.153L71.4891 721.322C70.6703 720.773 69.853 720.22 69.0374 719.662L68.4727 720.487ZM73.4019 723.787C74.2341 724.331 75.0675 724.87 75.9019 725.402L76.4398 724.559C75.6087 724.029 74.7784 723.492 73.9494 722.95L73.4019 723.787ZM78.411 726.982C79.2544 727.506 80.0986 728.024 80.9432 728.533L81.46 727.677C80.6191 727.17 79.7786 726.655 78.9387 726.133L78.411 726.982ZM83.4995 730.053C84.3536 730.553 85.2078 731.044 86.0621 731.527L86.5544 730.657C85.7045 730.176 84.8545 729.687 84.0045 729.19L83.4995 730.053ZM88.6728 732.977C89.5428 733.452 90.4125 733.916 91.2815 734.371L91.7452 733.485C90.8813 733.033 90.0166 732.571 89.1513 732.099L88.6728 732.977ZM93.9376 735.731C94.8274 736.176 95.7163 736.61 96.6039 737.033L97.0338 736.13C96.1523 735.71 95.2693 735.279 94.3851 734.837L93.9376 735.731ZM99.3021 738.283C100.214 738.694 101.124 739.091 102.032 739.475L102.421 738.554C101.52 738.173 100.618 737.779 99.7127 737.371L99.3021 738.283ZM104.775 740.596C105.71 740.964 106.643 741.317 107.572 741.654L107.913 740.714C106.992 740.38 106.068 740.03 105.142 739.666L104.775 740.596ZM110.367 742.621C111.325 742.936 112.28 743.233 113.231 743.512L113.512 742.552C112.572 742.277 111.628 741.983 110.679 741.671L110.367 742.621ZM116.082 744.293C117.063 744.542 118.038 744.77 119.009 744.976L119.216 743.998C118.259 743.795 117.297 743.57 116.329 743.324L116.082 744.293ZM121.919 745.528C122.917 745.695 123.909 745.836 124.895 745.952L125.011 744.959C124.042 744.845 123.066 744.706 122.083 744.542L121.919 745.528ZM127.856 746.22C128.864 746.283 129.864 746.318 130.856 746.322L130.86 745.322C129.889 745.318 128.908 745.284 127.919 745.222L127.856 746.22ZM133.842 746.238C134.846 746.176 135.84 746.081 136.824 745.951L136.693 744.96C135.733 745.087 134.762 745.18 133.781 745.24L133.842 746.238ZM139.779 745.447C140.76 745.24 141.729 744.995 142.685 744.712L142.401 743.753C141.471 744.029 140.528 744.267 139.573 744.468L139.779 745.447ZM145.522 743.739C146.453 743.375 147.369 742.971 148.272 742.525L147.829 741.629C146.952 742.062 146.062 742.454 145.158 742.808L145.522 743.739ZM150.896 741.084C151.743 740.57 152.576 740.016 153.394 739.42L152.805 738.612C152.01 739.191 151.201 739.73 150.378 740.229L150.896 741.084ZM155.745 737.556C156.488 736.916 157.217 736.239 157.932 735.522L157.224 734.816C156.527 735.515 155.816 736.175 155.092 736.798L155.745 737.556ZM159.977 733.319C160.614 732.582 161.237 731.811 161.848 731.006L161.051 730.402C160.453 731.191 159.843 731.945 159.22 732.665L159.977 733.319ZM163.585 728.562C163.867 728.139 164.147 727.706 164.424 727.266L163.576 726.734C163.305 727.167 163.03 727.591 162.753 728.007L163.585 728.562ZM164.424 727.266C164.687 726.845 164.948 726.421 165.207 725.994L164.351 725.477C164.096 725.899 163.837 726.318 163.576 726.734L164.424 727.266ZM166.726 723.395C167.222 722.516 167.708 721.625 168.184 720.722L167.299 720.256C166.828 721.151 166.346 722.033 165.855 722.904L166.726 723.395ZM169.579 717.985C170.017 717.096 170.446 716.197 170.867 715.287L169.959 714.867C169.542 715.77 169.116 716.662 168.682 717.543L169.579 717.985ZM172.104 712.527C172.508 711.597 172.904 710.657 173.292 709.708L172.366 709.33C171.981 710.272 171.588 711.206 171.187 712.129L172.104 712.527ZM174.41 706.889C174.767 705.961 175.118 705.024 175.461 704.078L174.522 703.737C174.18 704.676 173.832 705.607 173.477 706.53L174.41 706.889ZM176.472 701.218C176.803 700.257 177.126 699.287 177.444 698.31L176.493 698.001C176.177 698.973 175.855 699.937 175.527 700.893L176.472 701.218ZM178.351 695.444C178.645 694.49 178.934 693.529 179.217 692.562L178.257 692.282C177.975 693.244 177.688 694.2 177.396 695.149L178.351 695.444ZM180.05 689.642C180.322 688.663 180.59 687.677 180.852 686.685L179.885 686.429C179.624 687.417 179.358 688.399 179.086 689.374L180.05 689.642ZM181.602 683.782C181.846 682.813 182.087 681.838 182.322 680.859L181.35 680.624C181.115 681.601 180.876 682.572 180.632 683.537L181.602 683.782ZM183.018 677.905C183.246 676.915 183.47 675.92 183.69 674.921L182.713 674.706C182.494 675.702 182.271 676.694 182.043 677.68L183.018 677.905ZM184.322 671.987C184.529 671.008 184.732 670.025 184.933 669.038L183.953 668.839C183.753 669.824 183.55 670.804 183.344 671.78L184.322 671.987ZM185.524 666.066C185.717 665.072 185.908 664.073 186.096 663.072L185.114 662.887C184.926 663.887 184.736 664.883 184.542 665.875L185.524 666.066ZM186.643 660.109C186.821 659.124 186.997 658.136 187.171 657.145L186.186 656.972C186.013 657.961 185.837 658.947 185.659 659.93L186.643 660.109ZM187.684 654.164C187.853 653.167 188.02 652.168 188.185 651.166L187.198 651.004C187.034 652.004 186.867 653.002 186.698 653.996L187.684 654.164ZM188.669 648.18C188.827 647.191 188.984 646.2 189.138 645.207L188.15 645.053C187.996 646.045 187.84 647.035 187.682 648.022L188.669 648.18ZM189.598 642.221C189.749 641.224 189.9 640.225 190.048 639.224L189.059 639.077C188.911 640.076 188.761 641.074 188.609 642.071L189.598 642.221ZM190.49 636.224C190.635 635.232 190.779 634.238 190.921 633.243L189.931 633.101C189.789 634.095 189.645 635.088 189.501 636.08L190.49 636.224ZM191.347 630.254C191.487 629.257 191.627 628.258 191.767 627.259L190.777 627.121C190.637 628.12 190.497 629.117 190.356 630.114L191.347 630.254ZM192.183 624.259C192.321 623.262 192.458 622.265 192.595 621.268L191.604 621.132C191.468 622.129 191.33 623.126 191.193 624.122L192.183 624.259ZM193.004 618.276C193.141 617.279 193.277 616.281 193.413 615.283L192.422 615.148C192.286 616.146 192.15 617.144 192.014 618.141L193.004 618.276ZM193.821 612.289C193.957 611.291 194.093 610.292 194.229 609.294L193.239 609.159C193.102 610.157 192.966 611.155 192.83 612.154L193.821 612.289ZM194.64 606.299C194.777 605.301 194.915 604.304 195.053 603.307L194.063 603.17C193.924 604.167 193.787 605.165 193.649 606.163L194.64 606.299ZM195.47 600.318C195.61 599.322 195.75 598.327 195.891 597.333L194.901 597.192C194.76 598.187 194.619 599.183 194.48 600.179L195.47 600.318ZM196.321 594.334C196.465 593.335 196.61 592.338 196.756 591.342L195.767 591.197C195.62 592.194 195.475 593.192 195.331 594.191L196.321 594.334ZM197.199 588.359C197.348 587.366 197.498 586.374 197.65 585.385L196.662 585.233C196.51 586.224 196.359 587.216 196.21 588.21L197.199 588.359ZM198.115 582.392C198.272 581.393 198.431 580.396 198.592 579.401L197.604 579.242C197.443 580.238 197.284 581.236 197.127 582.237L198.115 582.392ZM199.079 576.424C199.244 575.434 199.411 574.446 199.58 573.461L198.594 573.292C198.425 574.279 198.258 575.268 198.093 576.26L199.079 576.424ZM200.098 570.487C200.274 569.489 200.454 568.493 200.636 567.5L199.652 567.32C199.47 568.315 199.29 569.312 199.113 570.313L200.098 570.487ZM201.19 564.532C201.377 563.545 201.567 562.562 201.76 561.583L200.779 561.39C200.586 562.371 200.395 563.357 200.207 564.345L201.19 564.532ZM202.352 558.637C202.557 557.641 202.764 556.648 202.976 555.66L201.998 555.451C201.786 556.442 201.578 557.437 201.373 558.437L202.352 558.637ZM203.62 552.707C203.838 551.726 204.06 550.751 204.286 549.78L203.312 549.553C203.085 550.527 202.863 551.506 202.644 552.489L203.62 552.707ZM204.978 546.868C205.219 545.877 205.464 544.891 205.714 543.91L204.745 543.663C204.494 544.648 204.248 545.637 204.007 546.632L204.978 546.868ZM206.477 540.985C206.736 540.015 207 539.051 207.268 538.093L206.306 537.823C206.036 538.785 205.771 539.753 205.511 540.727L206.477 540.985ZM208.094 535.22C208.382 534.24 208.676 533.267 208.976 532.301L208.021 532.005C207.72 532.976 207.424 533.953 207.135 534.938L208.094 535.22ZM209.893 529.423C210.204 528.47 210.521 527.525 210.844 526.587L209.899 526.261C209.574 527.204 209.255 528.155 208.942 529.112L209.893 529.423ZM211.846 523.762C212.195 522.803 212.551 521.853 212.914 520.911L211.981 520.551C211.616 521.499 211.257 522.455 210.906 523.42L211.846 523.762ZM214.025 518.112C214.403 517.188 214.788 516.272 215.18 515.366L214.263 514.969C213.867 515.881 213.479 516.803 213.099 517.734L214.025 518.112ZM216.412 512.609C216.837 511.686 217.27 510.774 217.712 509.872L216.814 509.432C216.369 510.341 215.932 511.261 215.503 512.191L216.412 512.609ZM219.066 507.199C219.527 506.317 219.997 505.445 220.477 504.585L219.604 504.098C219.119 504.966 218.645 505.846 218.179 506.736L219.066 507.199ZM221.998 501.951C222.515 501.085 223.043 500.232 223.581 499.392L222.739 498.852C222.195 499.701 221.662 500.563 221.14 501.438L221.998 501.951ZM225.229 496.911C225.8 496.081 226.383 495.264 226.977 494.463L226.174 493.867C225.572 494.678 224.983 495.504 224.405 496.344L225.229 496.911ZM228.817 492.075C229.442 491.294 230.08 490.528 230.73 489.777L229.974 489.122C229.315 489.883 228.669 490.659 228.036 491.45L228.817 492.075ZM232.732 487.56C233.42 486.828 234.122 486.113 234.838 485.414L234.14 484.698C233.413 485.407 232.701 486.133 232.003 486.875L232.732 487.56ZM237.028 483.369C237.772 482.704 238.531 482.057 239.304 481.427L238.672 480.652C237.887 481.291 237.117 481.948 236.362 482.623L237.028 483.369ZM241.663 479.595C242.464 479.002 243.281 478.428 244.112 477.871L243.556 477.04C242.711 477.605 241.882 478.189 241.068 478.791L241.663 479.595ZM246.654 476.258C247.499 475.75 248.359 475.259 249.235 474.788L248.76 473.907C247.871 474.387 246.997 474.885 246.138 475.401L246.654 476.258ZM251.894 473.436C252.795 473.004 253.713 472.591 254.647 472.196L254.258 471.275C253.31 471.675 252.378 472.095 251.462 472.534L251.894 473.436ZM257.431 471.095C258.347 470.757 259.278 470.436 260.224 470.134L259.919 469.181C258.959 469.488 258.015 469.814 257.085 470.157L257.431 471.095ZM263.108 469.28C264.084 469.013 265.076 468.765 266.083 468.535L265.861 467.56C264.84 467.793 263.834 468.045 262.844 468.315L263.108 469.28ZM268.948 467.941C269.91 467.761 270.885 467.597 271.874 467.449L271.727 466.46C270.725 466.609 269.738 466.775 268.764 466.958L268.948 467.941ZM274.884 467.057C275.894 466.944 276.917 466.848 277.954 466.768L277.878 465.771C276.829 465.851 275.794 465.949 274.773 466.063L274.884 467.057ZM280.848 466.592C281.825 466.548 282.814 466.518 283.815 466.503L283.8 465.503C282.789 465.518 281.79 465.548 280.803 465.593L280.848 466.592ZM286.856 466.501C287.882 466.516 288.921 466.545 289.972 466.589L290.014 465.59C288.954 465.546 287.906 465.516 286.87 465.501L286.856 466.501ZM292.874 466.748C293.842 466.813 294.82 466.89 295.808 466.98L295.899 465.984C294.902 465.894 293.916 465.816 292.941 465.751L292.874 466.748ZM298.806 467.288C299.816 467.403 300.836 467.531 301.867 467.672L302.003 466.681C300.964 466.539 299.936 466.41 298.919 466.294L298.806 467.288ZM304.91 468.12C305.852 468.268 306.803 468.427 307.763 468.597L307.937 467.612C306.971 467.441 306.014 467.281 305.066 467.132L304.91 468.12ZM310.669 469.137C311.646 469.328 312.633 469.53 313.628 469.742L313.837 468.764C312.836 468.551 311.844 468.348 310.86 468.156L310.669 469.137ZM316.642 470.412C317.649 470.644 318.666 470.887 319.691 471.142L319.932 470.171C318.901 469.916 317.88 469.671 316.867 469.437L316.642 470.412ZM322.48 471.854C323.417 472.1 324.361 472.355 325.313 472.619L325.58 471.656C324.624 471.39 323.675 471.134 322.734 470.887L322.48 471.854ZM328.191 473.438C329.158 473.72 330.132 474.011 331.114 474.312L331.407 473.355C330.421 473.054 329.442 472.762 328.471 472.478L328.191 473.438ZM334.083 475.24C335.055 475.55 336.034 475.869 337.02 476.197L337.336 475.248C336.346 474.919 335.363 474.599 334.388 474.287L334.083 475.24ZM339.756 477.122C340.674 477.438 341.598 477.762 342.529 478.092L342.864 477.15C341.93 476.818 341.002 476.494 340.081 476.177L339.756 477.122ZM345.339 479.108C346.282 479.454 347.232 479.808 348.188 480.169L348.541 479.233C347.583 478.871 346.63 478.516 345.684 478.169L345.339 479.108ZM351.075 481.276C352.044 481.652 353.019 482.037 354 482.429L354.371 481.5C353.387 481.107 352.409 480.722 351.437 480.344L351.075 481.276ZM356.736 483.535C357.627 483.899 358.523 484.27 359.425 484.648L359.811 483.725C358.907 483.347 358.008 482.975 357.114 482.609L356.736 483.535ZM362.146 485.798C363.059 486.188 363.976 486.584 364.899 486.987L365.299 486.071C364.374 485.667 363.454 485.27 362.539 484.879L362.146 485.798ZM367.684 488.215C368.618 488.63 369.557 489.052 370.501 489.481L370.915 488.57C369.968 488.14 369.027 487.717 368.091 487.301L367.684 488.215ZM373.351 490.786C373.829 491.006 374.308 491.229 374.789 491.453L375.211 490.547C374.73 490.322 374.25 490.099 373.771 489.878L373.351 490.786Z" fill="#1149C0"/>
<path d="M131 182L130.505 181.931L131 182ZM-1.76145 379.561C-2.00414 379.429 -2.30768 379.519 -2.43943 379.761C-2.57117 380.004 -2.48123 380.308 -2.23855 380.439L-1.76145 379.561ZM-2.23855 380.439C-1.78689 380.685 -1.32738 380.909 -0.860284 381.113L-0.459959 380.197C-0.900923 380.004 -1.33482 379.792 -1.76145 379.561L-2.23855 380.439ZM2.02084 382.091C3.00071 382.335 4.00689 382.501 5.03724 382.591L5.12412 381.595C4.14373 381.509 3.18932 381.352 2.26229 381.121L2.02084 382.091ZM8.05372 382.643C9.03392 382.595 10.0324 382.486 11.0475 382.318L10.884 381.331C9.90437 381.493 8.94423 381.598 8.00481 381.644L8.05372 382.643ZM14.0107 381.673C14.9558 381.42 15.9138 381.12 16.8836 380.775L16.5481 379.833C15.6021 380.17 14.6698 380.461 13.7522 380.707L14.0107 381.673ZM19.6559 379.678C20.564 379.284 21.4814 378.853 22.4074 378.385L21.9566 377.493C21.047 377.952 20.1472 378.375 19.2579 378.761L19.6559 379.678ZM25.0093 376.989C25.8658 376.503 26.7289 375.987 27.5981 375.442L27.0672 374.595C26.2097 375.132 25.3589 375.64 24.5156 376.119L25.0093 376.989ZM30.0825 373.819C30.8964 373.266 31.7151 372.689 32.5382 372.088L31.9485 371.28C31.1341 371.875 30.3246 372.446 29.5203 372.992L30.0825 373.819ZM34.9069 370.303C35.6871 369.697 36.4707 369.07 37.2574 368.424L36.6227 367.651C35.8427 368.292 35.0662 368.913 34.2935 369.513L34.9069 370.303ZM39.5167 366.521C40.2702 365.87 41.0262 365.202 41.7843 364.517L41.1138 363.775C40.3611 364.456 39.6109 365.119 38.8634 365.764L39.5167 366.521ZM43.9421 362.526C44.6631 361.847 45.3859 361.153 46.1101 360.443L45.4105 359.729C44.6908 360.434 43.9727 361.123 43.2565 361.798L43.9421 362.526ZM48.2075 358.352C48.8968 357.653 49.5871 356.94 50.2783 356.214L49.5543 355.525C48.8669 356.246 48.1804 356.955 47.4952 357.65L48.2075 358.352ZM52.3319 354.024C52.9922 353.308 53.6531 352.581 54.3143 351.842L53.5694 351.175C52.9114 351.91 52.2538 352.634 51.5969 353.346L52.3319 354.024ZM56.299 349.594C56.943 348.853 57.5873 348.102 58.2315 347.341L57.4682 346.695C56.8269 347.453 56.1856 348.2 55.5445 348.937L56.299 349.594ZM60.1333 345.065C60.7671 344.296 61.4007 343.518 62.0339 342.73L61.2544 342.104C60.6238 342.888 59.9928 343.663 59.3617 344.429L60.1333 345.065ZM63.8657 340.423C64.474 339.647 65.0819 338.863 65.6891 338.071L64.8952 337.463C64.2904 338.252 63.6849 339.033 63.0789 339.806L63.8657 340.423ZM67.5018 335.677C68.0869 334.895 68.6713 334.105 69.2547 333.308L68.4478 332.718C67.8664 333.512 67.2842 334.299 66.7012 335.078L67.5018 335.677ZM71.0022 330.895C71.5803 330.087 72.1574 329.273 72.7333 328.451L71.9143 327.877C71.3404 328.696 70.7653 329.508 70.1892 330.312L71.0022 330.895ZM74.415 326.026C74.9743 325.211 75.5324 324.389 76.0891 323.56L75.2592 323.003C74.7042 323.828 74.1479 324.647 73.5904 325.46L74.415 326.026ZM77.7468 321.069C78.2857 320.25 78.8233 319.425 79.3593 318.595L78.519 318.053C77.9847 318.881 77.4488 319.703 76.9116 320.519L77.7468 321.069ZM80.9625 316.086C81.4941 315.245 82.024 314.399 82.5521 313.547L81.7022 313.02C81.1757 313.87 80.6473 314.713 80.1174 315.551L80.9625 316.086ZM84.0973 311.031C84.6106 310.187 85.1221 309.337 85.6316 308.483L84.7727 307.971C84.2647 308.823 83.7547 309.67 83.2429 310.511L84.0973 311.031ZM87.1544 305.904C87.6503 305.056 88.1442 304.203 88.636 303.345L87.7686 302.848C87.2781 303.703 86.7856 304.554 86.2911 305.399L87.1544 305.904ZM90.1032 300.762C90.5901 299.897 91.0748 299.027 91.5573 298.152L90.6817 297.669C90.2005 298.541 89.7171 299.409 89.2316 300.272L90.1032 300.762ZM92.98 295.548C93.4494 294.68 93.9165 293.808 94.3812 292.932L93.4978 292.464C93.0344 293.337 92.5686 294.207 92.1005 295.072L92.98 295.548ZM95.7681 290.293C96.2251 289.414 96.6796 288.532 97.1316 287.645L96.2408 287.191C95.79 288.075 95.3367 288.955 94.8809 289.831L95.7681 290.293ZM98.4678 285C98.9106 284.114 99.3508 283.225 99.7883 282.332L98.8903 281.892C98.454 282.782 98.015 283.669 97.5733 284.552L98.4678 285ZM101.092 279.645C101.518 278.757 101.942 277.865 102.363 276.97L101.458 276.544C101.038 277.437 100.616 278.326 100.19 279.212L101.092 279.645ZM103.618 274.276C104.033 273.374 104.446 272.47 104.855 271.562L103.943 271.151C103.535 272.056 103.124 272.958 102.71 273.857L103.618 274.276ZM106.066 268.849C106.465 267.945 106.861 267.038 107.255 266.128L106.337 265.732C105.945 266.639 105.549 267.544 105.151 268.445L106.066 268.849ZM108.425 263.39C108.811 262.477 109.194 261.561 109.573 260.642L108.649 260.26C108.27 261.177 107.889 262.09 107.504 263.001L108.425 263.39ZM110.696 257.895C111.066 256.977 111.434 256.056 111.798 255.133L110.868 254.766C110.505 255.686 110.138 256.605 109.768 257.52L110.696 257.895ZM112.88 252.357C113.235 251.433 113.588 250.508 113.936 249.58L113 249.228C112.652 250.153 112.301 251.076 111.947 251.997L112.88 252.357ZM114.97 246.793C115.311 245.863 115.648 244.93 115.982 243.995L115.04 243.659C114.707 244.591 114.371 245.521 114.031 246.45L114.97 246.793ZM116.97 241.188C117.295 240.253 117.616 239.316 117.934 238.377L116.986 238.056C116.67 238.993 116.35 239.927 116.026 240.86L116.97 241.188ZM118.874 235.555C119.184 234.613 119.489 233.669 119.791 232.723L118.838 232.42C118.537 233.362 118.233 234.303 117.924 235.243L118.874 235.555ZM120.682 229.887C120.975 228.94 121.264 227.992 121.549 227.042L120.591 226.755C120.307 227.702 120.019 228.647 119.727 229.591L120.682 229.887ZM122.39 224.189C122.667 223.237 122.939 222.283 123.206 221.329L122.244 221.059C121.977 222.01 121.705 222.961 121.43 223.911L122.39 224.189ZM123.996 218.461C124.255 217.504 124.51 216.545 124.76 215.586L123.792 215.334C123.543 216.29 123.289 217.245 123.031 218.199L123.996 218.461ZM125.497 212.706C125.738 211.743 125.975 210.779 126.207 209.815L125.234 209.581C125.003 210.542 124.767 211.503 124.527 212.462L125.497 212.706ZM126.889 206.919C127.111 205.953 127.329 204.986 127.542 204.019L126.566 203.804C126.353 204.768 126.136 205.732 125.914 206.695L126.889 206.919ZM128.167 201.111C128.371 200.139 128.57 199.166 128.764 198.194L127.783 197.998C127.59 198.968 127.392 199.937 127.189 200.905L128.167 201.111ZM129.33 195.274C129.514 194.3 129.692 193.326 129.865 192.352L128.881 192.177C128.708 193.148 128.53 194.118 128.347 195.089L129.33 195.274ZM130.372 189.415C130.535 188.436 130.693 187.457 130.846 186.477L129.858 186.323C129.706 187.299 129.548 188.275 129.385 189.251L130.372 189.415ZM131.287 183.538C131.358 183.048 131.427 182.559 131.495 182.069L130.505 181.931C130.437 182.419 130.368 182.907 130.297 183.395L131.287 183.538ZM131.495 182.069C131.567 181.55 131.642 181.035 131.718 180.523L130.729 180.374C130.652 180.89 130.577 181.409 130.505 181.931L131.495 182.069ZM132.207 177.49C132.378 176.493 132.56 175.508 132.75 174.537L131.768 174.345C131.577 175.324 131.394 176.315 131.221 177.32L132.207 177.49ZM133.347 171.662C133.569 170.657 133.8 169.667 134.041 168.691L133.071 168.451C132.827 169.435 132.594 170.434 132.371 171.447L133.347 171.662ZM134.811 165.747C135.078 164.78 135.355 163.829 135.642 162.892L134.686 162.599C134.396 163.545 134.117 164.505 133.847 165.481L134.811 165.747ZM136.553 160.066C136.885 159.087 137.228 158.125 137.582 157.18L136.646 156.829C136.288 157.784 135.941 158.756 135.606 159.745L136.553 160.066ZM138.679 154.393C139.057 153.477 139.447 152.577 139.847 151.694L138.936 151.281C138.531 152.175 138.137 153.085 137.755 154.012L138.679 154.393ZM141.163 148.926C141.615 148.022 142.078 147.136 142.553 146.268L141.675 145.788C141.194 146.667 140.725 147.565 140.269 148.48L141.163 148.926ZM144.019 143.709C144.546 142.828 145.087 141.968 145.64 141.127L144.804 140.577C144.243 141.43 143.695 142.303 143.161 143.195L144.019 143.709ZM147.337 138.661C147.922 137.851 148.518 137.06 149.128 136.288L148.342 135.668C147.724 136.452 147.119 137.254 146.526 138.077L147.337 138.661ZM151.055 133.955C151.711 133.198 152.379 132.461 153.061 131.744L152.335 131.055C151.644 131.784 150.965 132.532 150.299 133.301L151.055 133.955ZM155.172 129.62C155.898 128.923 156.637 128.246 157.389 127.589L156.731 126.836C155.967 127.504 155.217 128.191 154.479 128.899L155.172 129.62ZM159.681 125.678C160.467 125.054 161.265 124.449 162.075 123.864L161.49 123.054C160.667 123.647 159.857 124.261 159.059 124.895L159.681 125.678ZM164.547 122.165C165.383 121.618 166.23 121.09 167.09 120.581L166.58 119.721C165.708 120.237 164.848 120.773 163.999 121.328L164.547 122.165ZM169.702 119.11C170.584 118.638 171.477 118.184 172.381 117.749L171.947 116.848C171.03 117.289 170.125 117.749 169.23 118.228L169.702 119.11ZM175.106 116.504C176.022 116.108 176.947 115.729 177.883 115.367L177.522 114.434C176.575 114.801 175.637 115.185 174.709 115.586L175.106 116.504ZM180.718 114.331C181.656 114.009 182.603 113.702 183.559 113.41L183.267 112.454C182.3 112.748 181.342 113.059 180.393 113.386L180.718 114.331ZM186.453 112.582C187.418 112.323 188.393 112.079 189.375 111.849L189.147 110.875C188.155 111.107 187.17 111.354 186.194 111.616L186.453 112.582ZM192.3 111.213C193.282 111.015 194.272 110.83 195.269 110.659L195.1 109.674C194.094 109.846 193.094 110.033 192.102 110.233L192.3 111.213ZM198.237 110.193C199.223 110.051 200.215 109.922 201.214 109.805L201.097 108.812C200.091 108.93 199.09 109.06 198.096 109.203L198.237 110.193ZM204.227 109.491C205.217 109.4 206.213 109.32 207.215 109.251L207.146 108.253C206.137 108.323 205.133 108.403 204.135 108.495L204.227 109.491ZM210.217 109.078C211.223 109.031 212.234 108.995 213.25 108.969L213.224 107.969C212.202 107.995 211.184 108.032 210.171 108.079L210.217 109.078ZM216.244 108.922C217.244 108.915 218.248 108.919 219.256 108.931L219.268 107.932C218.254 107.919 217.244 107.915 216.238 107.922L216.244 108.922ZM222.291 108.997C223.285 109.027 224.284 109.066 225.285 109.113L225.332 108.114C224.325 108.067 223.321 108.028 222.321 107.997L222.291 108.997ZM228.294 109.279C229.3 109.342 230.309 109.413 231.32 109.492L231.398 108.495C230.382 108.416 229.368 108.344 228.356 108.281L228.294 109.279ZM234.311 109.748C235.308 109.84 236.308 109.94 237.31 110.046L237.415 109.052C236.409 108.945 235.405 108.845 234.403 108.752L234.311 109.748ZM240.322 110.386C241.315 110.505 242.309 110.63 243.306 110.761L243.437 109.77C242.436 109.638 241.437 109.512 240.44 109.393L240.322 110.386ZM246.291 111.173C247.288 111.317 248.286 111.466 249.286 111.621L249.439 110.633C248.436 110.477 247.434 110.327 246.434 110.183L246.291 111.173ZM252.262 112.1C253.251 112.264 254.241 112.434 255.233 112.609L255.406 111.624C254.412 111.448 253.419 111.278 252.426 111.113L252.262 112.1ZM258.208 113.149C259.196 113.333 260.185 113.523 261.174 113.717L261.366 112.735C260.374 112.541 259.382 112.351 258.391 112.166L258.208 113.149ZM264.13 114.31C265.116 114.512 266.101 114.719 267.087 114.93L267.296 113.952C266.308 113.74 265.319 113.533 264.331 113.33L264.13 114.31ZM270.04 115.574C271.021 115.792 272.002 116.014 272.983 116.24L273.207 115.266C272.224 115.039 271.241 114.816 270.257 114.598L270.04 115.574ZM275.923 116.929C276.902 117.162 277.881 117.398 278.859 117.638L279.097 116.667C278.117 116.427 277.136 116.189 276.155 115.956L275.923 116.929ZM281.792 118.368C282.768 118.614 283.743 118.864 284.718 119.116L284.968 118.148C283.992 117.895 283.015 117.645 282.036 117.398L281.792 118.368ZM287.635 119.881C288.611 120.14 289.586 120.402 290.558 120.666L290.82 119.701C289.846 119.436 288.87 119.174 287.892 118.915L287.635 119.881ZM293.473 121.465C294.442 121.734 295.41 122.005 296.375 122.278L296.647 121.316C295.68 121.043 294.711 120.771 293.74 120.502L293.473 121.465ZM299.286 123.109C300.257 123.389 301.225 123.67 302.191 123.953L302.472 122.993C301.505 122.71 300.535 122.428 299.562 122.148L299.286 123.109ZM305.081 124.806C306.049 125.095 307.015 125.384 307.978 125.675L308.267 124.717C307.303 124.426 306.336 124.136 305.366 123.848L305.081 124.806ZM310.877 126.556C311.84 126.851 312.8 127.147 313.756 127.443L314.052 126.488C313.095 126.191 312.134 125.895 311.17 125.6L310.877 126.556ZM316.64 128.342C317.609 128.646 318.575 128.95 319.536 129.254L319.837 128.301C318.876 127.996 317.909 127.692 316.939 127.388L316.64 128.342ZM322.405 130.167C323.368 130.475 324.326 130.782 325.279 131.089L325.586 130.137C324.632 129.83 323.673 129.522 322.71 129.214L322.405 130.167ZM328.172 132.025C329.132 132.336 330.086 132.646 331.034 132.956L331.344 132.005C330.395 131.695 329.441 131.385 328.481 131.073L328.172 132.025ZM333.905 133.895C334.874 134.213 335.838 134.529 336.795 134.844L337.108 133.894C336.15 133.579 335.186 133.263 334.216 132.944L333.905 133.895ZM339.647 135.784C340.614 136.103 341.574 136.419 342.526 136.734L342.84 135.784C341.887 135.47 340.927 135.153 339.96 134.834L339.647 135.784ZM345.412 137.686C346.366 138 347.311 138.312 348.249 138.62L348.561 137.671C347.624 137.362 346.679 137.051 345.725 136.736L345.412 137.686ZM351.155 139.575C352.122 139.892 353.08 140.205 354.028 140.513L354.337 139.562C353.39 139.254 352.433 138.941 351.466 138.625L351.155 139.575ZM356.88 141.438C357.865 141.756 358.838 142.068 359.798 142.374L360.102 141.421C359.143 141.116 358.171 140.804 357.187 140.486L356.88 141.438ZM362.643 143.275C363.633 143.585 364.609 143.889 365.57 144.185L365.864 143.229C364.905 142.934 363.931 142.631 362.943 142.32L362.643 143.275ZM368.452 145.061C368.925 145.203 369.394 145.342 369.858 145.48L370.142 144.521C369.678 144.384 369.211 144.244 368.74 144.103L368.452 145.061Z" fill="#1149C0"/>
</g>
<defs>
<clipPath id="clip0">
<rect width="375" height="812" rx="25" fill="white"/>
</clipPath>
</defs>
</svg>
