<svg width="9" height="9" viewBox="0 0 9 9" fill="none" xmlns="http://www.w3.org/2000/svg">
<g clip-path="url(#clip0)">
<path d="M8.82131 3.21166C8.7665 3.04213 8.61613 2.92172 8.43822 2.90568L6.02168 2.68626L5.06611 0.449659C4.99565 0.285745 4.83519 0.179642 4.6569 0.179642C4.47861 0.179642 4.31815 0.285745 4.24769 0.450042L3.29212 2.68626L0.87519 2.90568C0.697606 2.9221 0.547618 3.04213 0.492491 3.21166C0.437363 3.3812 0.488275 3.56715 0.622612 3.68437L2.44924 5.28633L1.91061 7.65899C1.87119 7.83345 1.93891 8.01378 2.08366 8.11841C2.16146 8.17463 2.25249 8.20324 2.34428 8.20324C2.42343 8.20324 2.50194 8.18191 2.57239 8.13975L4.6569 6.89391L6.74064 8.13975C6.89312 8.23148 7.08533 8.22311 7.22976 8.11841C7.37457 8.01346 7.44222 7.83306 7.40281 7.65899L6.86418 5.28633L8.6908 3.68469C8.82514 3.56715 8.87643 3.38152 8.82131 3.21166Z" fill="#FFC107"/>
</g>
<defs>
<clipPath id="clip0">
<rect width="8.37255" height="8.37255" fill="white" transform="translate(0.470581)"/>
</clipPath>
</defs>
</svg>
