<svg width="18" height="21" viewBox="0 0 18 21" fill="none" xmlns="http://www.w3.org/2000/svg">
<path d="M11.1945 1.07333H8.87002V2.52609H10.468V5.26212C10.468 7.66524 8.51286 9.62043 6.10974 9.62043C3.70661 9.62043 1.75146 7.66528 1.75146 5.26216V2.52609H3.30109V1.07333H1.02508C0.623878 1.07333 0.298706 1.39851 0.298706 1.79971V5.26216C0.298706 8.46649 2.90544 11.0732 6.10977 11.0732C9.3141 11.0732 11.9208 8.46649 11.9208 5.26216V1.79971C11.9208 1.39851 11.5957 1.07333 11.1945 1.07333Z" fill="#35364F"/>
<path fill-rule="evenodd" clip-rule="evenodd" d="M8.57131 0.774811H11.1943C11.7604 0.774811 12.2192 1.23364 12.2192 1.79973V5.26218C12.2192 8.63139 9.47882 11.3718 6.10961 11.3718C2.7404 11.3718 0 8.63139 0 5.26218V1.79973C0 1.23364 0.458834 0.774811 1.02492 0.774811H3.59947V2.82466H2.04984V5.26218C2.04984 7.50042 3.87133 9.32191 6.10957 9.32191C8.34781 9.32191 10.1693 7.50038 10.1693 5.26214V2.82466H8.57131V0.774811ZM3.30093 2.52611H1.7513V5.26218C1.7513 7.6653 3.70645 9.62045 6.10957 9.62045C8.51269 9.62045 10.4679 7.66526 10.4679 5.26214V2.52611H8.86986V1.07335H11.1943C11.5955 1.07335 11.9207 1.39853 11.9207 1.79973V5.26218C11.9207 8.46651 9.31394 11.0732 6.10961 11.0732C2.90528 11.0732 0.298544 8.46651 0.298544 5.26218V1.79973C0.298544 1.39853 0.623715 1.07335 1.02492 1.07335H3.30093V2.52611Z" fill="#35364F"/>
<path d="M14.0273 11.6786V15.1168C14.0273 17.1194 12.398 18.7487 10.3954 18.7487C8.3927 18.7487 6.76343 17.1194 6.76343 15.1168V10.3711H5.31067V15.1168C5.31067 17.9204 7.5915 20.2015 10.3954 20.2015C13.1989 20.2015 15.48 17.9204 15.48 15.1168V11.6786H14.0273Z" fill="#35364F"/>
<path fill-rule="evenodd" clip-rule="evenodd" d="M13.7286 11.38H15.7784V15.1168C15.7784 18.0852 13.3637 20.5 10.3952 20.5C7.42644 20.5 5.01196 18.0852 5.01196 15.1168V10.0725H7.06181V15.1168C7.06181 16.9545 8.55742 18.4502 10.3952 18.4502C12.233 18.4502 13.7286 16.9545 13.7286 15.1168V11.38ZM14.0271 15.1168C14.0271 17.1194 12.3978 18.7487 10.3952 18.7487C8.39254 18.7487 6.76326 17.1194 6.76326 15.1168V10.3711H5.31051V15.1168C5.31051 17.9204 7.59133 20.2015 10.3952 20.2015C13.1988 20.2015 15.4799 17.9204 15.4799 15.1168V11.6785H14.0271V15.1168Z" fill="#35364F"/>
<path d="M14.7539 6.98126C13.2716 6.98126 12.066 8.18683 12.066 9.66889C12.066 11.1507 13.2716 12.3565 14.7537 12.3565C16.2357 12.3565 17.4413 11.1507 17.4415 9.66889C17.4415 8.18683 16.2357 6.98126 14.7539 6.98126ZM14.7537 10.9038C14.0726 10.9038 13.5186 10.3498 13.5186 9.66893C13.5186 8.98807 14.0725 8.4341 14.7537 8.4341C15.4345 8.4341 15.9885 8.98807 15.9885 9.66893C15.9885 10.3498 15.4345 10.9038 14.7537 10.9038Z" fill="#35364F"/>
<path fill-rule="evenodd" clip-rule="evenodd" d="M17.74 9.66888V9.66893C17.7398 11.3156 16.4006 12.6551 14.7536 12.6551C13.1067 12.6551 11.7675 11.3156 11.7675 9.66888C11.7675 8.02192 13.1067 6.68271 14.7539 6.68271C16.4006 6.68271 17.74 8.02192 17.74 9.66888ZM17.4415 9.66888C17.4413 11.1507 16.2357 12.3565 14.7536 12.3565C13.2716 12.3565 12.066 11.1507 12.066 9.66888C12.066 8.18682 13.2716 6.98125 14.7539 6.98125C16.2357 6.98125 17.4415 8.18682 17.4415 9.66888ZM13.8171 9.66892C13.8171 10.1849 14.2374 10.6052 14.7536 10.6052C15.2696 10.6052 15.6899 10.1849 15.6899 9.66892C15.6899 9.15295 15.2696 8.73263 14.7536 8.73263C14.2373 8.73263 13.8171 9.15299 13.8171 9.66892ZM13.5185 9.66892C13.5185 10.3498 14.0725 10.9038 14.7536 10.9038C15.4345 10.9038 15.9885 10.3498 15.9885 9.66892C15.9885 8.98806 15.4345 8.43409 14.7536 8.43409C14.0725 8.43409 13.5185 8.98806 13.5185 9.66892Z" fill="#35364F"/>
<path d="M3.27691 0.298553C2.87571 0.298553 2.55054 0.623725 2.55054 1.02493V2.57456C2.55054 2.97577 2.87571 3.30094 3.27691 3.30094C3.67812 3.30094 4.00329 2.97577 4.00329 2.57456V1.02493C4.00329 0.623725 3.67812 0.298553 3.27691 0.298553Z" fill="#35364F"/>
<path fill-rule="evenodd" clip-rule="evenodd" d="M2.25183 1.02492C2.25183 0.458836 2.71066 0 3.27675 0C3.84284 0 4.30167 0.458835 4.30167 1.02492V2.57455C4.30167 3.14064 3.84284 3.59947 3.27675 3.59947C2.71066 3.59947 2.25183 3.14064 2.25183 2.57455V1.02492ZM2.55037 1.02492C2.55037 0.623715 2.87554 0.298544 3.27675 0.298544C3.67795 0.298544 4.00313 0.623715 4.00313 1.02492V2.57455C4.00313 2.97576 3.67795 3.30093 3.27675 3.30093C2.87554 3.30093 2.55037 2.97576 2.55037 2.57455V1.02492Z" fill="#35364F"/>
<path d="M8.89422 0.298553C8.49301 0.298553 8.16785 0.623725 8.16785 1.02493V2.57456C8.16785 2.97577 8.49301 3.30094 8.89422 3.30094C9.29542 3.30094 9.62059 2.97577 9.62059 2.57456V1.02493C9.62059 0.623725 9.29542 0.298553 8.89422 0.298553Z" fill="#35364F"/>
<path fill-rule="evenodd" clip-rule="evenodd" d="M7.86914 1.02492C7.86914 0.458837 8.32797 0 8.89406 0C9.46014 0 9.91897 0.458837 9.91897 1.02492V2.57455C9.91897 3.14064 9.46014 3.59947 8.89406 3.59947C8.32797 3.59947 7.86914 3.14064 7.86914 2.57455V1.02492ZM8.16768 1.02492C8.16768 0.623715 8.49285 0.298544 8.89406 0.298544C9.29526 0.298544 9.62043 0.623715 9.62043 1.02492V2.57455C9.62043 2.97576 9.29526 3.30093 8.89406 3.30093C8.49285 3.30093 8.16768 2.97576 8.16768 2.57455V1.02492Z" fill="#35364F"/>
</svg>
