<svg width="14" height="11" viewBox="0 0 14 11" fill="none" xmlns="http://www.w3.org/2000/svg">
<path d="M13.9158 5.67496C13.7644 5.43153 13.411 5.34025 13.125 5.49239L11.2067 6.49654L10.7188 6.75519V9.15906L11.1731 9.40249C11.1899 9.40249 11.1899 9.41771 11.2067 9.41771L13.0913 10.4066C13.1754 10.4675 13.2932 10.4979 13.411 10.4979C13.7307 10.4979 13.9831 10.2697 13.9831 9.98064V7.94191L13.9999 5.93361C13.9999 5.84232 13.9831 5.75104 13.9158 5.67496Z" fill="white"/>
<path d="M2.70926 4.89903C4.20684 4.89903 5.41836 3.8036 5.41836 2.44952C5.41836 1.09544 4.20684 0 2.70926 0C1.21169 0 0.000170843 1.09544 0.000170843 2.44952C-0.0166558 3.8036 1.21169 4.89903 2.70926 4.89903ZM2.70926 1.44537C3.33185 1.44537 3.81983 1.9018 3.81983 2.44952C3.81983 3.01245 3.31503 3.45367 2.70926 3.45367C2.1035 3.45367 1.5987 2.99723 1.5987 2.44952C1.58188 1.88658 2.08668 1.44537 2.70926 1.44537Z" fill="white"/>
<path d="M9.57457 5.03596C9.13708 5.23375 8.64911 5.35547 8.12748 5.35547C7.48807 5.35547 6.88231 5.18811 6.37751 4.88382H4.45927C3.95447 5.18811 3.34871 5.35547 2.70929 5.35547C2.18766 5.35547 1.69969 5.24896 1.2622 5.03596C0.875184 5.23375 0.605957 5.62932 0.605957 6.05533V9.76763C0.605957 10.4523 1.22854 11 1.96892 11H8.88468C9.64188 11 10.2476 10.4371 10.2476 9.76763V6.05533C10.2308 5.62932 9.96159 5.23375 9.57457 5.03596Z" fill="white"/>
<path d="M8.12731 4.89903C9.62488 4.89903 10.8364 3.8036 10.8364 2.44952C10.8364 1.09544 9.62488 0 8.12731 0C6.62973 0 5.41821 1.09544 5.41821 2.44952C5.41821 3.8036 6.62973 4.89903 8.12731 4.89903ZM8.12731 1.44537C8.7499 1.44537 9.23787 1.9018 9.23787 2.44952C9.23787 3.01245 8.73307 3.45367 8.12731 3.45367C7.52155 3.45367 7.01675 2.99723 7.01675 2.44952C7.01675 1.88658 7.50472 1.44537 8.12731 1.44537Z" fill="white"/>
</svg>
